<svg width="26" height="25" viewBox="0 0 26 25" fill="none" xmlns="http://www.w3.org/2000/svg">
    <path d="M11.2948 22.6436C16.2825 22.6436 20.3032 18.5024 20.3032 13.4223C20.3032 8.34215 16.2825 4.20095 11.2948 4.20095C6.30709 4.20095 2.2864 8.34215 2.2864 13.4223C2.2864 18.5024 6.30709 22.6436 11.2948 22.6436Z" stroke="#40444E" stroke-width="1.07563" stroke-linecap="round" />
    <path d="M7.67466 16.7188C8.08097 17.0795 8.63427 17.3543 9.25708 17.5386C9.88393 17.7241 10.585 17.8193 11.292 17.8193C11.9991 17.8193 12.7002 17.7241 13.327 17.5386C13.9498 17.3543 14.5031 17.0795 14.9094 16.7188" stroke="#40444E" stroke-width="1.07563" stroke-linecap="round" />
    <ellipse cx="8.46852" cy="11.4924" rx="0.941176" ry="0.964836" fill="#40444E" stroke="#40444E" stroke-width="1.07563" stroke-linecap="round" />
    <ellipse cx="14.117" cy="11.4924" rx="0.941176" ry="0.964836" fill="#40444E" stroke="#40444E" stroke-width="1.07563" stroke-linecap="round" />
    <path d="M25.0586 4.61792L17.9998 4.61792" stroke="#40444E" stroke-width="0.882353" stroke-linecap="round" />
    <path d="M21.5273 0.999756L21.5273 8.23603" stroke="#40444E" stroke-width="0.882353" stroke-linecap="round" />
</svg>