<svg width="70" height="70" viewBox="0 0 70 70" fill="none" xmlns="http://www.w3.org/2000/svg">
<g filter="url(#filter0_ii_5697_31261)">
<path fill-rule="evenodd" clip-rule="evenodd" d="M44.0417 5.83301L17.375 5.83301C14.0613 5.83301 11.375 8.5193 11.375 11.833V58.1663C11.375 61.4801 14.0613 64.1663 17.375 64.1663H52.625C55.9387 64.1663 58.625 61.4801 58.625 58.1663V20.4163L44.0417 5.83301Z" fill="#F16C00"/>
</g>
<path d="M45.0653 35.4348C44.995 35.7846 44.8566 36.1171 44.6579 36.4134C44.4961 36.6594 44.332 36.8241 44.1675 36.7406C44.0057 36.7406 43.9222 35.6783 43.8437 35.5136C43.7183 35.228 43.6357 34.9255 43.5986 34.6158C43.5174 33.9621 43.2724 33.3867 42.8626 33.1432C42.4555 32.8163 41.8866 32.5704 41.1509 32.4054C40.352 32.2502 39.5988 31.9156 38.9481 31.427C38.296 30.9351 37.5626 30.5271 37.1555 30.0352C36.7457 29.6272 36.4195 29.5434 36.2577 29.6272C36.0124 29.7084 35.9315 29.9543 35.9315 30.2V45.4077C35.9315 45.8184 35.8506 46.3076 35.6862 46.7994C35.5244 47.2913 35.4408 47.7802 35.0337 48.2697C34.6266 48.7616 34.0553 49.0884 33.322 49.4155C32.5859 49.7426 31.6908 49.9074 30.7098 49.9883C29.6982 50.0521 28.6873 49.8549 27.774 49.4155C26.9881 49.0544 26.292 48.5236 25.7357 47.8614C25.2453 47.2075 25 46.5535 25 45.7345C25 44.9997 25.3289 44.2643 26.0619 43.61C26.7144 42.9561 27.4478 42.4645 28.2644 42.2186C29.0789 41.9727 29.8146 41.8106 30.548 41.8106C31.2837 41.8106 32.4242 41.8106 32.9954 41.975C33.5646 42.1374 33.9744 42.221 34.3003 42.3022V27.8278C34.3003 27.3359 34.4624 26.93 34.7078 26.6032C34.9528 26.276 35.3599 26.1113 35.767 26.0304C36.1768 25.9492 36.5031 26.0304 36.7481 26.2763C36.9934 26.4384 36.7481 26.7679 37.072 27.0924C37.3173 27.4195 37.6435 27.8302 38.053 28.3193C38.4601 28.8112 38.9481 29.2192 39.6006 29.6275C40.1722 30.0355 40.6626 30.2815 41.0697 30.5274C41.4771 30.6898 41.8866 30.8545 42.2128 31.0193C42.5387 31.1813 42.9462 31.3437 43.2724 31.5896C43.5983 31.8356 44.0081 32.1624 44.4129 32.6543C44.8223 33.1461 45.0653 33.5518 45.1486 34.0433C45.1486 34.5352 45.1486 35.0244 45.0653 35.4327V35.4351V35.4348Z" fill="white"/>
<path d="M57.2561 19.0498H45.4082L58.6243 32.2659L58.6243 20.417L57.2561 19.0498Z" fill="url(#paint0_linear_5697_31261)"/>
<path d="M48.0417 20.417L58.625 20.417L44.0417 5.83366L44.0417 16.417C44.0417 18.6261 45.8325 20.417 48.0417 20.417Z" fill="#F9C499"/>
<defs>
<filter id="filter0_ii_5697_31261" x="11.375" y="4.83301" width="47.25" height="60.333" filterUnits="userSpaceOnUse" color-interpolation-filters="sRGB">
<feFlood flood-opacity="0" result="BackgroundImageFix"/>
<feBlend mode="normal" in="SourceGraphic" in2="BackgroundImageFix" result="shape"/>
<feColorMatrix in="SourceAlpha" type="matrix" values="0 0 0 0 0 0 0 0 0 0 0 0 0 0 0 0 0 0 127 0" result="hardAlpha"/>
<feOffset dy="-1"/>
<feGaussianBlur stdDeviation="0.5"/>
<feComposite in2="hardAlpha" operator="arithmetic" k2="-1" k3="1"/>
<feColorMatrix type="matrix" values="0 0 0 0 0 0 0 0 0 0 0 0 0 0 0 0 0 0 0.3 0"/>
<feBlend mode="normal" in2="shape" result="effect1_innerShadow_5697_31261"/>
<feColorMatrix in="SourceAlpha" type="matrix" values="0 0 0 0 0 0 0 0 0 0 0 0 0 0 0 0 0 0 127 0" result="hardAlpha"/>
<feOffset dy="1"/>
<feGaussianBlur stdDeviation="0.5"/>
<feComposite in2="hardAlpha" operator="arithmetic" k2="-1" k3="1"/>
<feColorMatrix type="matrix" values="0 0 0 0 1 0 0 0 0 1 0 0 0 0 1 0 0 0 0.3 0"/>
<feBlend mode="normal" in2="effect1_innerShadow_5697_31261" result="effect2_innerShadow_5697_31261"/>
</filter>
<linearGradient id="paint0_linear_5697_31261" x1="48.3704" y1="16.0876" x2="61.5866" y2="29.3037" gradientUnits="userSpaceOnUse">
<stop stop-opacity="0.2"/>
<stop offset="1" stop-opacity="0"/>
</linearGradient>
</defs>
</svg>
