<svg xmlns="http://www.w3.org/2000/svg" width="40" height="40" viewBox="0 0 40 40" fill="none">
    <rect width="40" height="40" rx="20" fill="#FFE7D2"/>
    <path d="M10.4543 25L14.3743 15.2H15.8863L19.8063 25H18.2103L17.1603 22.27H13.1003L12.0503 25H10.4543ZM15.1303 16.922C15.0836 17.0807 15.051 17.174 15.0323 17.202L14.7943 17.86L13.6043 20.954H16.6563L15.4663 17.86L15.2283 17.202C15.2096 17.174 15.177 17.0807 15.1303 16.922ZM20.6875 25V15.2H22.2275L26.6235 22.032C26.6702 22.0973 26.7309 22.1953 26.8055 22.326C26.8988 22.4753 26.9782 22.6247 27.0435 22.774V15.2H28.4995V25H26.9595L22.5635 18.168C22.5168 18.1027 22.4562 18.0047 22.3815 17.874C22.2695 17.6967 22.1902 17.5473 22.1435 17.426V25H20.6875Z" fill="#FE891D"/>
</svg>
