<svg width="21" height="20" viewBox="0 0 21 20" fill="none" xmlns="http://www.w3.org/2000/svg">
<path d="M10.8138 1.66699C6.22214 1.66699 2.48047 5.40866 2.48047 10.0003C2.48047 14.592 6.22214 18.3337 10.8138 18.3337C15.4055 18.3337 19.1471 14.592 19.1471 10.0003C19.1471 5.40866 15.4055 1.66699 10.8138 1.66699ZM14.7971 8.08366L10.0721 12.8087C9.95547 12.9253 9.79714 12.992 9.63047 12.992C9.4638 12.992 9.30547 12.9253 9.1888 12.8087L6.83047 10.4503C6.5888 10.2087 6.5888 9.80866 6.83047 9.56699C7.07214 9.32533 7.47214 9.32533 7.7138 9.56699L9.63047 11.4837L13.9138 7.20033C14.1555 6.95866 14.5555 6.95866 14.7971 7.20033C15.0388 7.44199 15.0388 7.83366 14.7971 8.08366Z" fill="#28D02F"/>
</svg>
