<svg width="36" height="36" viewBox="0 0 36 36" fill="none" xmlns="http://www.w3.org/2000/svg">
<g id="message">
<path id="Subtract" fill-rule="evenodd" clip-rule="evenodd" d="M30 6H6C4.65951 6 3.51703 6.89103 3.13558 8.11007C3.26835 8.13019 3.39864 8.18046 3.51612 8.26269L18 18.4014L32.4839 8.26269C32.6014 8.18046 32.7316 8.13019 32.8644 8.11007C32.483 6.89103 31.3405 6 30 6ZM33 10.0986L18.5161 20.2373C18.2062 20.4542 17.7938 20.4542 17.4839 20.2373L3 10.0986V27C3 28.65 4.35 30 6 30H30C31.65 30 33 28.65 33 27V10.0986Z" fill="#FE891D"/>
</g>
</svg>
