<svg width="25" height="24" viewBox="0 0 25 24" fill="none" xmlns="http://www.w3.org/2000/svg">
<path fill-rule="evenodd" clip-rule="evenodd" d="M22.5 12C22.5 17.5228 18.0228 22 12.5 22C6.97715 22 2.5 17.5228 2.5 12C2.5 6.47715 6.97715 2 12.5 2C18.0228 2 22.5 6.47715 22.5 12ZM13.4 6C13.4 5.50294 12.9971 5.1 12.5 5.1C12.0029 5.1 11.6 5.50294 11.6 6V12C11.6 12.3409 11.7926 12.6525 12.0975 12.805L16.0975 14.805C16.5421 15.0273 17.0827 14.8471 17.305 14.4025C17.5273 13.9579 17.3471 13.4173 16.9025 13.195L13.4 11.4438V6Z" fill="#FE891D"/>
</svg>
