<svg width="17" height="16" viewBox="0 0 17 16" fill="none" xmlns="http://www.w3.org/2000/svg">
<path d="M14.5 3.98665C12.28 3.76665 10.0467 3.65332 7.82 3.65332C6.5 3.65332 5.18 3.71999 3.86 3.85332L2.5 3.98665" stroke="white" stroke-linecap="round" stroke-linejoin="round"/>
<path d="M6.16699 3.31337L6.31366 2.44004C6.42033 1.80671 6.50033 1.33337 7.62699 1.33337H9.37366C10.5003 1.33337 10.587 1.83337 10.687 2.44671L10.8337 3.31337" stroke="white" stroke-linecap="round" stroke-linejoin="round"/>
<path d="M13.0669 6.09338L12.6336 12.8067C12.5603 13.8534 12.5003 14.6667 10.6403 14.6667H6.36026C4.50026 14.6667 4.44026 13.8534 4.36693 12.8067L3.93359 6.09338" stroke="white" stroke-linecap="round" stroke-linejoin="round"/>
<path d="M7.38672 11H9.60672" stroke="white" stroke-linecap="round" stroke-linejoin="round"/>
<path d="M6.83301 8.33337H10.1663" stroke="white" stroke-linecap="round" stroke-linejoin="round"/>
</svg>
