<svg width="18" height="18" viewBox="0 0 18 18" fill="none" xmlns="http://www.w3.org/2000/svg">
<g id="vuesax/linear/eye-slash">
<g id="eye-slash">
<path id="Vector" d="M10.8975 7.1025L7.1025 10.8975C6.615 10.41 6.315 9.7425 6.315 9C6.315 7.515 7.515 6.315 9 6.315C9.7425 6.315 10.41 6.615 10.8975 7.1025Z" stroke="#8694A4" stroke-linecap="round" stroke-linejoin="round"/>
<path id="Vector_2" d="M13.365 4.32785C12.0525 3.33785 10.5525 2.79785 9 2.79785C6.3525 2.79785 3.885 4.35785 2.1675 7.05785C1.4925 8.11535 1.4925 9.89285 2.1675 10.9504C2.76 11.8804 3.45 12.6829 4.2 13.3279" stroke="#8694A4" stroke-linecap="round" stroke-linejoin="round"/>
<path id="Vector_3" d="M6.315 14.6473C7.17 15.0073 8.0775 15.2023 9 15.2023C11.6475 15.2023 14.115 13.6423 15.8325 10.9423C16.5075 9.88477 16.5075 8.10727 15.8325 7.04977C15.585 6.65977 15.315 6.29227 15.0375 5.94727" stroke="#8694A4" stroke-linecap="round" stroke-linejoin="round"/>
<path id="Vector_4" d="M11.6328 9.52441C11.4378 10.5819 10.5753 11.4444 9.51782 11.6394" stroke="#8694A4" stroke-linecap="round" stroke-linejoin="round"/>
<path id="Vector_5" d="M7.1025 10.897L1.5 16.4995" stroke="#8694A4" stroke-linecap="round" stroke-linejoin="round"/>
<path id="Vector_6" d="M16.5002 1.5L10.8977 7.1025" stroke="#8694A4" stroke-linecap="round" stroke-linejoin="round"/>
</g>
</g>
</svg>
