<svg width="54" height="80" viewBox="0 0 54 80" fill="none" xmlns="http://www.w3.org/2000/svg">
<g clip-path="url(#clip0_870_11358)">
<g filter="url(#filter0_ii_870_11358)">
<path fill-rule="evenodd" clip-rule="evenodd" d="M8 6.6665C3.58172 6.6665 0 10.2482 0 14.6665V65.3332C0 69.7515 3.58172 73.3332 8 73.3332H46C50.4183 73.3332 54 69.7515 54 65.3332V23.3332L37.3333 6.6665H8Z" fill="#40444E"/>
</g>
<path d="M52.436 21.771H38.8955L53.9997 36.8752V23.3335L52.436 21.771Z" fill="url(#paint0_linear_870_11358)"/>
<path d="M42.3333 23.3335L54 23.3335L37.3333 6.66683L37.3333 18.3335C37.3333 21.0949 39.5719 23.3335 42.3333 23.3335Z" fill="#74777E"/>
<path d="M12.7093 36.672H16.5173C17.0613 36.672 17.584 36.7253 18.0853 36.832C18.5973 36.9387 19.0453 37.12 19.4293 37.376C19.8133 37.6213 20.1173 37.9573 20.3413 38.384C20.576 38.8 20.6933 39.3227 20.6933 39.952C20.6933 40.6667 20.5706 41.2427 20.3253 41.68C20.08 42.1173 19.7493 42.4587 19.3333 42.704C18.9173 42.9387 18.432 43.0987 17.8773 43.184C17.3333 43.2693 16.7626 43.312 16.1653 43.312H14.7253V48H12.7093V36.672ZM15.9413 41.584C16.2293 41.584 16.528 41.5733 16.8373 41.552C17.1466 41.5307 17.4293 41.4667 17.6853 41.36C17.952 41.2533 18.1653 41.0933 18.3253 40.88C18.496 40.6667 18.5813 40.368 18.5813 39.984C18.5813 39.632 18.5066 39.3547 18.3573 39.152C18.208 38.9387 18.016 38.7787 17.7813 38.672C17.5466 38.5547 17.2853 38.48 16.9973 38.448C16.7093 38.416 16.432 38.4 16.1653 38.4H14.7253V41.584H15.9413ZM22.4906 36.672H26.9546C27.7012 36.672 28.4212 36.7893 29.1146 37.024C29.8079 37.248 30.4212 37.5947 30.9546 38.064C31.4879 38.5333 31.9146 39.1253 32.2346 39.84C32.5546 40.544 32.7146 41.376 32.7146 42.336C32.7146 43.3067 32.5279 44.1493 32.1546 44.864C31.7919 45.568 31.3172 46.1547 30.7306 46.624C30.1546 47.0827 29.5092 47.4293 28.7946 47.664C28.0906 47.888 27.3972 48 26.7146 48H22.4906V36.672ZM26.0106 46.176C26.6399 46.176 27.2319 46.1067 27.7866 45.968C28.3519 45.8187 28.8426 45.5947 29.2586 45.296C29.6746 44.9867 29.9999 44.592 30.2346 44.112C30.4799 43.6213 30.6026 43.0293 30.6026 42.336C30.6026 41.6533 30.4959 41.0667 30.2826 40.576C30.0692 40.0853 29.7706 39.6907 29.3866 39.392C29.0132 39.0827 28.5652 38.8587 28.0426 38.72C27.5306 38.5707 26.9652 38.496 26.3466 38.496H24.5066V46.176H26.0106ZM34.6312 36.672H41.9432V38.496H36.6472V41.472H41.6392V43.296H36.6472V48H34.6312V36.672Z" fill="white" fill-opacity="0.8"/>
</g>
<defs>
<filter id="filter0_ii_870_11358" x="0" y="5.6665" width="54" height="68.6667" filterUnits="userSpaceOnUse" color-interpolation-filters="sRGB">
<feFlood flood-opacity="0" result="BackgroundImageFix"/>
<feBlend mode="normal" in="SourceGraphic" in2="BackgroundImageFix" result="shape"/>
<feColorMatrix in="SourceAlpha" type="matrix" values="0 0 0 0 0 0 0 0 0 0 0 0 0 0 0 0 0 0 127 0" result="hardAlpha"/>
<feOffset dy="-2"/>
<feGaussianBlur stdDeviation="0.5"/>
<feComposite in2="hardAlpha" operator="arithmetic" k2="-1" k3="1"/>
<feColorMatrix type="matrix" values="0 0 0 0 0 0 0 0 0 0 0 0 0 0 0 0 0 0 0.3 0"/>
<feBlend mode="normal" in2="shape" result="effect1_innerShadow_870_11358"/>
<feColorMatrix in="SourceAlpha" type="matrix" values="0 0 0 0 0 0 0 0 0 0 0 0 0 0 0 0 0 0 127 0" result="hardAlpha"/>
<feOffset dy="2"/>
<feGaussianBlur stdDeviation="0.5"/>
<feComposite in2="hardAlpha" operator="arithmetic" k2="-1" k3="1"/>
<feColorMatrix type="matrix" values="0 0 0 0 1 0 0 0 0 1 0 0 0 0 1 0 0 0 0.3 0"/>
<feBlend mode="normal" in2="effect1_innerShadow_870_11358" result="effect2_innerShadow_870_11358"/>
</filter>
<linearGradient id="paint0_linear_870_11358" x1="42.2809" y1="18.3856" x2="57.3851" y2="33.4897" gradientUnits="userSpaceOnUse">
<stop stop-opacity="0.2"/>
<stop offset="1" stop-opacity="0"/>
</linearGradient>
<clipPath id="clip0_870_11358">
<rect width="54" height="80" fill="white"/>
</clipPath>
</defs>
</svg>
