<svg xmlns="http://www.w3.org/2000/svg" width="17" height="17" viewBox="0 0 17 17" fill="none">
    <path d="M6.59015 4.07897C6.68 4.16774 6.7874 4.23677 6.90547 4.28163C7.02354 4.32649 7.14968 4.3462 7.2758 4.3395C7.40193 4.33279 7.52527 4.29982 7.63792 4.24269C7.75056 4.18556 7.85004 4.10554 7.92997 4.00774C8.59112 3.1956 9.33357 2.45317 10.1457 1.79203C10.2436 1.71217 10.3237 1.61272 10.3809 1.50007C10.4381 1.38742 10.4711 1.26405 10.4778 1.13788C10.4845 1.01172 10.4648 0.88555 10.4199 0.767472C10.3749 0.649393 10.3058 0.542016 10.2169 0.452234L10.0292 0.264531C9.94282 0.179258 9.84038 0.111956 9.72782 0.0665196C9.61525 0.0210828 9.4948 -0.00158832 9.37342 -0.000182549C9.25204 0.00122323 9.13214 0.026678 9.02066 0.0747096C8.90918 0.122741 8.80833 0.192397 8.72394 0.279648C7.87534 0.964252 7.10217 1.73741 6.41756 2.58599C6.33031 2.67039 6.26066 2.77125 6.21264 2.88273C6.16461 2.99422 6.13916 3.11411 6.13776 3.23549C6.13635 3.35687 6.15902 3.47733 6.20446 3.58989C6.2499 3.70245 6.3172 3.80489 6.40247 3.89129L6.59015 4.07897Z" fill="#FF2B00"/>
    <path d="M12.5879 8.66611C12.4901 8.74605 12.4101 8.84552 12.353 8.95817C12.2958 9.07082 12.2629 9.19416 12.2562 9.32028C12.2495 9.44641 12.2692 9.57255 12.314 9.69061C12.3589 9.80868 12.4279 9.91608 12.5167 10.0059L12.7044 10.1936C12.7908 10.2789 12.8932 10.3462 13.0058 10.3916C13.1183 10.4371 13.2388 10.4597 13.3602 10.4583C13.4816 10.4569 13.6015 10.4315 13.7129 10.3834C13.8244 10.3354 13.9253 10.2658 14.0097 10.1785C14.8583 9.4939 15.6314 8.72074 16.316 7.87215C16.4033 7.78775 16.4729 7.6869 16.521 7.57542C16.569 7.46393 16.5944 7.34404 16.5958 7.22266C16.5972 7.10128 16.5746 6.98083 16.5291 6.86826C16.4837 6.7557 16.4164 6.65326 16.3311 6.56687C16.2317 6.42775 16.1006 6.31429 15.9487 6.23588C15.7967 6.15748 15.6283 6.11637 15.4573 6.11597C15.3309 6.12215 15.2072 6.15517 15.0945 6.21282C14.9818 6.27047 14.8827 6.35144 14.8036 6.45035C14.1425 7.26251 13.4001 8.00496 12.5879 8.66611Z" fill="#FF2B00"/>
    <path d="M9.55235 8.59825L10.0464 8.2034C10.0248 8.19046 10.0054 8.17968 9.98386 8.16674C9.33858 7.7551 8.79495 7.20262 8.39379 6.55078C8.18834 6.80407 7.77505 7.31929 7.57178 7.57558C7.94716 7.85912 8.08167 8.35406 8.547 8.62409C8.73231 8.72021 8.89375 8.8566 9.01945 9.02326L9.55235 8.59825Z" fill="#FF2B00"/>
    <path d="M3.09505 11.8367L0.920303 13.8475C-0.340023 15.1212 1.51862 16.9178 2.75852 15.6684L3.31512 15.0643C3.28039 14.5371 3.09505 11.8367 3.09505 11.8367Z" fill="#FF2B00"/>
    <path d="M10.3204 2.44107C9.49914 3.12213 8.76182 3.89851 8.12402 4.75383L8.60307 5.23285C8.43386 6.21041 10.3841 8.1598 11.3625 7.99232L11.8415 8.47126C12.6968 7.83351 13.4732 7.09623 14.1543 6.27496C14.3381 6.11252 14.4928 5.91988 14.6117 5.70535L14.1284 5.22208C14.3051 4.25287 12.3428 2.291 11.3733 2.46695L10.8922 1.98584C10.6757 2.10184 10.482 2.25606 10.3204 2.44107Z" fill="#FF2B00"/>
    <path d="M8.6764 9.4349C8.66931 9.37808 8.64928 9.32364 8.61786 9.27577C8.58644 9.2279 8.54447 9.18787 8.49516 9.15875C8.05539 8.90449 7.69009 8.5392 7.43584 8.09943C7.40741 8.04954 7.36756 8.0071 7.31956 7.97559C7.27155 7.94409 7.21676 7.92442 7.15968 7.91819C6.90517 7.86077 6.65984 8.24266 6.49516 8.37988C6.0408 8.84895 7.30455 9.90664 7.70335 10.1232C7.77693 10.182 7.8694 10.212 7.96351 10.2076C8.05761 10.2033 8.1469 10.1648 8.21471 10.0994C8.35201 9.93454 8.73363 9.68974 8.6764 9.4349Z" fill="#FF2B00"/>
    <path d="M6.98102 10.2C6.60617 9.90079 6.29137 9.5333 6.05328 9.11694C5.90198 9.23789 5.75723 9.36681 5.61963 9.50314C5.67138 10.334 5.75212 11.5373 5.80519 12.3683L7.43625 10.6035C7.45379 10.5854 7.4677 10.5642 7.47724 10.5409C7.30225 10.4419 7.13621 10.3278 6.98102 10.2Z" fill="#FF2B00"/>
    <path d="M5.04306 10.0354L3.6709 11.304C3.73038 12.1774 3.82525 13.5689 3.88449 14.4475L5.23292 12.9869C5.20219 12.4857 5.04306 10.0354 5.04306 10.0354Z" fill="#FF2B00"/>
</svg>
