<svg width="38" height="38" viewBox="0 0 38 38" fill="none" xmlns="http://www.w3.org/2000/svg">
<circle cx="19" cy="19" r="19" fill="#F1F1F1"/>
<path d="M8.11492 21.3418V20.6058L9.68292 20.2538V21.3258C9.68292 22.8298 10.4989 23.5018 11.6349 23.5018C12.7869 23.5018 13.4909 22.7498 13.4909 21.4378V13.3738H15.0589V21.3258C15.0589 23.3098 13.7629 24.9578 11.6509 24.9578C9.42692 24.9578 8.11492 23.5178 8.11492 21.3418ZM22.6938 24.9578C19.7658 24.9578 17.0618 22.8298 17.0618 19.0378C17.0618 15.2458 19.8778 13.1338 22.6938 13.1338C25.2858 13.1338 27.1098 14.5418 27.6858 16.7338L26.2298 17.2458C25.7978 15.5338 24.5498 14.5738 22.6938 14.5738C20.6298 14.5738 18.6618 16.0778 18.6618 19.0378C18.6618 21.9978 20.6298 23.5178 22.6938 23.5178C24.6298 23.5178 25.8458 22.3498 26.3098 20.7978L27.7018 21.3098C27.0938 23.4378 25.3018 24.9578 22.6938 24.9578Z" fill="#40444E"/>
</svg>
