<svg width="17" height="16" viewBox="0 0 17 16" fill="none" xmlns="http://www.w3.org/2000/svg">
    <path d="M13.6933 2.81332C11.7199 0.846651 8.51994 0.846651 6.55994 2.81332C5.17993 4.17998 4.7666 6.14665 5.29993 7.87998L2.1666 11.0133C1.9466 11.24 1.79327 11.6867 1.83993 12.0067L2.03993 13.46C2.11327 13.94 2.55993 14.3933 3.03993 14.46L4.49327 14.66C4.81327 14.7067 5.25993 14.56 5.4866 14.3267L6.03327 13.78C6.1666 13.6533 6.1666 13.44 6.03327 13.3067L4.73993 12.0133C4.5466 11.82 4.5466 11.5 4.73993 11.3067C4.93327 11.1133 5.25327 11.1133 5.4466 11.3067L6.7466 12.6067C6.87327 12.7333 7.0866 12.7333 7.21327 12.6067L8.6266 11.2C10.3533 11.74 12.3199 11.32 13.6933 9.95332C15.6599 7.98665 15.6599 4.77998 13.6933 2.81332ZM10.1666 7.99998C9.2466 7.99998 8.49993 7.25332 8.49993 6.33332C8.49993 5.41332 9.2466 4.66665 10.1666 4.66665C11.0866 4.66665 11.8333 5.41332 11.8333 6.33332C11.8333 7.25332 11.0866 7.99998 10.1666 7.99998Z" fill="#40444E" />
  </svg>
