<svg width="20" height="20" viewBox="0 0 20 20" fill="none" xmlns="http://www.w3.org/2000/svg">
    <g id="vuesax/bold/key">
        <path id="Vector" d="M16.4912 3.51672C14.0246 1.05839 10.0246 1.05839 7.57455 3.51672C5.84955 5.22506 5.33289 7.68339 5.99955 9.85006L2.08289 13.7667C1.80789 14.0501 1.61622 14.6084 1.67455 15.0084L1.92455 16.8251C2.01622 17.4251 2.57455 17.9917 3.17455 18.0751L4.99122 18.3251C5.39122 18.3834 5.94955 18.2001 6.23289 17.9084L6.91622 17.2251C7.08289 17.0667 7.08289 16.8001 6.91622 16.6334L5.29955 15.0167C5.05789 14.7751 5.05789 14.3751 5.29955 14.1334C5.54122 13.8917 5.94122 13.8917 6.18289 14.1334L7.80789 15.7584C7.96622 15.9167 8.23289 15.9167 8.39122 15.7584L10.1579 14.0001C12.3162 14.6751 14.7746 14.1501 16.4912 12.4417C18.9496 9.98339 18.9496 5.97506 16.4912 3.51672ZM12.0829 10.0001C10.9329 10.0001 9.99955 9.06672 9.99955 7.91672C9.99955 6.76672 10.9329 5.83339 12.0829 5.83339C13.2329 5.83339 14.1662 6.76672 14.1662 7.91672C14.1662 9.06672 13.2329 10.0001 12.0829 10.0001Z" fill="white"/>
    </g>
</svg>
