<svg width="25" height="24" viewBox="0 0 25 24" fill="none" xmlns="http://www.w3.org/2000/svg">
<path d="M20.0194 14.93C17.9594 16.98 15.0094 17.61 12.4194 16.8L7.70939 21.5C7.36939 21.85 6.69939 22.06 6.21939 21.99L4.03939 21.69C3.31939 21.59 2.64939 20.91 2.53939 20.19L2.23939 18.01C2.16939 17.53 2.39939 16.86 2.72939 16.52L7.42939 11.82C6.62939 9.22001 7.24939 6.27001 9.30939 4.22001C12.2594 1.27001 17.0494 1.27001 20.0094 4.22001C22.9694 7.17001 22.9694 11.98 20.0194 14.93Z" stroke="#292D32" stroke-width="1.5" stroke-miterlimit="10" stroke-linecap="round" stroke-linejoin="round"/>
<path d="M7.11938 17.49L9.41938 19.79" stroke="#292D32" stroke-width="1.5" stroke-miterlimit="10" stroke-linecap="round" stroke-linejoin="round"/>
<path d="M14.7295 11C15.5579 11 16.2295 10.3284 16.2295 9.5C16.2295 8.67157 15.5579 8 14.7295 8C13.9011 8 13.2295 8.67157 13.2295 9.5C13.2295 10.3284 13.9011 11 14.7295 11Z" stroke="#292D32" stroke-width="1.5" stroke-linecap="round" stroke-linejoin="round"/>
</svg>
