<svg width="26" height="26" viewBox="0 0 26 26" fill="none" xmlns="http://www.w3.org/2000/svg">
<circle cx="13" cy="13" r="12" fill="#FFF4DF" stroke="white" stroke-width="2"/>
<path d="M16.895 9.11016C15.415 7.63516 13.015 7.63516 11.545 9.11016C10.51 10.1352 10.2 11.6102 10.6 12.9102L8.24995 15.2602C8.08495 15.4302 7.96995 15.7652 8.00495 16.0052L8.15495 17.0952C8.20995 17.4552 8.54495 17.7952 8.90495 17.8452L9.99495 17.9952C10.235 18.0302 10.57 17.9202 10.74 17.7452L11.15 17.3352C11.25 17.2402 11.25 17.0802 11.15 16.9802L10.18 16.0102C10.035 15.8652 10.035 15.6252 10.18 15.4802C10.325 15.3352 10.565 15.3352 10.71 15.4802L11.685 16.4552C11.78 16.5502 11.94 16.5502 12.035 16.4552L13.095 15.4002C14.39 15.8052 15.865 15.4902 16.895 14.4652C18.37 12.9902 18.37 10.5852 16.895 9.11016ZM14.25 13.0002C13.56 13.0002 13 12.4402 13 11.7502C13 11.0602 13.56 10.5002 14.25 10.5002C14.94 10.5002 15.5 11.0602 15.5 11.7502C15.5 12.4402 14.94 13.0002 14.25 13.0002Z" fill="#FFB525"/>
</svg>
