<svg width="34" height="34" viewBox="0 0 34 34" fill="none" xmlns="http://www.w3.org/2000/svg">
<circle cx="17" cy="17" r="16" fill="#F1F1F1" stroke="white" stroke-width="2"/>
<path d="M22.1938 11.8134C20.2204 9.84671 17.0204 9.84671 15.0604 11.8134C13.6804 13.18 13.2671 15.1467 13.8004 16.88L10.6671 20.0134C10.4471 20.24 10.2938 20.6867 10.3404 21.0067L10.5404 22.46C10.6138 22.94 11.0604 23.3934 11.5404 23.46L12.9938 23.66C13.3138 23.7067 13.7604 23.56 13.9871 23.3267L14.5338 22.78C14.6671 22.6534 14.6671 22.44 14.5338 22.3067L13.2404 21.0134C13.0471 20.82 13.0471 20.5 13.2404 20.3067C13.4338 20.1134 13.7538 20.1134 13.9471 20.3067L15.2471 21.6067C15.3738 21.7334 15.5871 21.7334 15.7138 21.6067L17.1271 20.2C18.8538 20.74 20.8204 20.32 22.1938 18.9534C24.1604 16.9867 24.1604 13.78 22.1938 11.8134ZM18.6671 17C17.7471 17 17.0004 16.2534 17.0004 15.3334C17.0004 14.4134 17.7471 13.6667 18.6671 13.6667C19.5871 13.6667 20.3338 14.4134 20.3338 15.3334C20.3338 16.2534 19.5871 17 18.6671 17Z" fill="#40444E"/>
</svg>
