<svg width="497" height="200" viewBox="0 0 497 200" fill="none" xmlns="http://www.w3.org/2000/svg">
    <path d="M574.97 787.585C574.97 983.596 533.169 1161.04 465.6 1289.46C398.023 1417.9 304.721 1497.24 201.744 1497.24C98.7672 1497.24 5.4649 1417.9 -62.1115 1289.46C-129.68 1161.04 -171.482 983.596 -171.482 787.585C-171.482 591.574 -129.68 414.134 -62.1115 285.709C5.4649 157.269 98.7672 77.9303 201.744 77.9303C304.721 77.9303 398.023 157.269 465.6 285.709C533.169 414.134 574.97 591.574 574.97 787.585Z"
          stroke="#DDDDDD" stroke-width="0.618436"/>
    <path d="M465.927 524.338C604.528 662.939 700.439 817.966 743.471 956.555C786.508 1095.16 776.634 1217.23 703.819 1290.05C631.003 1362.87 508.927 1372.74 370.323 1329.7C231.734 1286.67 76.7072 1190.76 -61.8937 1052.16C-200.495 913.558 -296.405 758.531 -339.437 619.942C-382.474 481.338 -372.601 359.263 -299.785 286.447C-226.969 213.631 -104.894 203.757 33.7106 246.794C172.3 289.827 327.326 385.737 465.927 524.338Z"
          stroke="#DDDDDD" stroke-width="0.618436"/>
    <path d="M466.099 1051.01C327.498 1189.61 172.471 1285.52 33.8822 1328.55C-104.722 1371.59 -226.798 1361.71 -299.613 1288.9C-372.429 1216.08 -382.303 1094.01 -339.266 955.403C-296.234 816.814 -200.323 661.787 -61.7221 523.186C76.8788 384.585 231.906 288.675 370.495 245.643C509.099 202.606 631.174 212.479 703.99 285.295C776.806 358.111 786.68 480.186 743.643 618.791C700.61 757.38 604.7 912.406 466.099 1051.01Z"
          stroke="#DDDDDD" stroke-width="0.618436"/>
    <path d="M345.187 443.8C526.277 518.81 674.213 625.333 767.006 736.904C859.808 848.489 897.402 965.05 857.995 1060.19C818.587 1155.33 709.583 1211.17 565.059 1224.45C420.552 1237.73 240.623 1208.44 59.5318 1133.43C-121.559 1058.42 -269.495 951.898 -362.287 840.326C-455.09 728.742 -492.684 612.181 -453.276 517.042C-413.869 421.904 -304.864 366.066 -160.341 352.785C-15.8339 339.506 164.096 368.789 345.187 443.8Z"
          stroke="#DDDDDD" stroke-width="0.618436"/>
    <path d="M546.888 930.316C471.878 1111.41 365.355 1259.34 253.783 1352.14C142.199 1444.94 25.6372 1482.53 -69.5011 1443.12C-164.639 1403.72 -220.478 1294.71 -233.758 1150.19C-247.038 1005.68 -217.754 825.752 -142.744 644.662C-67.7334 463.571 38.7893 315.635 150.361 222.842C261.945 130.04 378.507 92.4459 473.645 131.853C568.783 171.261 624.622 280.266 637.903 424.789C651.182 569.296 621.898 749.225 546.888 930.316Z"
          stroke="#DDDDDD" stroke-width="0.618436"/>
    <path d="M59.8807 443.538C240.971 368.528 420.901 339.244 565.408 352.523C709.932 365.804 818.936 421.642 858.344 516.78C897.751 611.919 860.157 728.48 767.355 840.065C674.562 951.636 526.626 1058.16 345.535 1133.17C164.445 1208.18 -15.485 1237.46 -159.992 1224.18C-304.515 1210.9 -413.52 1155.06 -452.928 1059.93C-492.335 964.788 -454.741 848.227 -361.938 736.643C-269.146 625.071 -121.21 518.548 59.8807 443.538Z"
          stroke="#DDDDDD" stroke-width="0.618436"/>
    <path d="M546.527 644.927C621.537 826.018 650.82 1005.95 637.541 1150.46C624.261 1294.98 568.422 1403.98 473.284 1443.39C378.146 1482.8 261.584 1445.2 150 1352.4C38.4281 1259.61 -68.0946 1111.67 -143.105 930.582C-218.115 749.491 -247.399 569.562 -234.12 425.055C-220.839 280.531 -165.001 171.527 -69.8623 132.119C25.2759 92.7118 141.838 130.306 253.422 223.108C364.994 315.901 471.516 463.837 546.527 644.927Z"
          stroke="#DDDDDD" stroke-width="0.618436"/>
    <path d="M574.618 771.342C583.168 967.167 549.146 1146.26 487.243 1277.51C425.334 1408.78 335.581 1492.11 232.702 1496.6C129.823 1501.09 33.149 1425.9 -39.9655 1300.53C-113.072 1175.17 -162.573 999.727 -171.123 803.902C-179.673 608.077 -145.651 428.983 -83.7486 297.732C-21.839 166.467 67.9138 83.1343 170.793 78.6425C273.672 74.1507 370.346 149.344 443.46 274.714C516.567 400.07 566.068 575.517 574.618 771.342Z"
          stroke="#DDDDDD" stroke-width="0.618436"/>
    <path d="M454.191 513.098C598.706 645.522 701.287 796.217 750.324 932.797C799.365 1069.39 794.826 1191.78 725.256 1267.71C655.686 1343.63 534.157 1358.82 393.807 1321.87C253.473 1284.92 94.4101 1195.86 -50.1046 1063.44C-194.619 931.017 -297.201 780.321 -346.237 643.741C-395.279 507.146 -390.739 384.756 -321.169 308.833C-251.599 232.911 -130.07 217.722 10.2793 254.672C150.613 291.618 309.676 380.675 454.191 513.098Z"
          stroke="#DDDDDD" stroke-width="0.618436"/>
    <path d="M477.339 1039.26C344.916 1183.77 194.22 1286.36 57.6402 1335.39C-78.955 1384.43 -201.345 1379.9 -277.268 1310.32C-353.19 1240.75 -368.379 1119.23 -331.429 978.876C-294.483 838.542 -205.426 679.479 -73.0027 534.965C59.4206 390.45 210.116 287.869 346.696 238.832C483.292 189.79 605.682 194.33 681.604 263.9C757.527 333.47 772.716 454.999 735.766 595.349C698.82 735.683 609.763 894.746 477.339 1039.26Z"
          stroke="#DDDDDD" stroke-width="0.618436"/>
    <path d="M330.049 437.907C514.24 504.947 666.682 604.915 764.252 712.333C861.834 819.763 904.476 934.574 869.256 1031.34C834.036 1128.11 727.571 1188.65 583.764 1208.22C439.974 1227.79 258.938 1206.38 74.7479 1139.34C-109.442 1072.3 -261.884 972.334 -359.455 864.916C-457.036 757.486 -499.679 642.675 -464.459 545.908C-429.239 449.141 -322.773 388.601 -178.967 369.029C-35.1766 349.46 145.859 370.867 330.049 437.907Z"
          stroke="#DDDDDD" stroke-width="0.618436"/>
    <path d="M552.785 915.161C485.745 1099.35 385.776 1251.79 278.358 1349.36C170.928 1446.94 56.1174 1489.59 -40.6492 1454.37C-137.416 1419.15 -197.956 1312.68 -217.528 1168.88C-237.098 1025.09 -215.69 844.05 -148.651 659.859C-81.6107 475.669 18.3577 323.227 125.776 225.656C233.206 128.075 348.017 85.4324 444.783 120.653C541.55 155.873 602.09 262.338 621.662 406.144C641.232 549.935 619.824 730.97 552.785 915.161Z"
          stroke="#DDDDDD" stroke-width="0.618436"/>
    <path d="M45.0074 450.088C222.654 367.25 401.135 330.146 546.084 337.109C691.049 344.073 802.385 395.103 845.905 488.432C889.425 581.761 856.951 699.851 769.104 815.377C681.267 930.891 538.118 1043.76 360.472 1126.6C182.825 1209.44 4.344 1246.54 -140.605 1239.58C-285.57 1232.62 -396.906 1181.59 -440.426 1088.26C-483.946 994.93 -451.472 876.839 -363.625 761.313C-275.788 645.8 -132.639 532.926 45.0074 450.088Z"
          stroke="#DDDDDD" stroke-width="0.618436"/>
    <path d="M539.976 630.059C622.814 807.706 659.918 986.187 652.955 1131.14C645.991 1276.1 594.96 1387.44 501.631 1430.96C408.303 1474.48 290.212 1442 174.686 1354.16C59.1729 1266.32 -53.7014 1123.17 -136.539 945.523C-219.377 767.877 -256.481 589.396 -249.518 444.447C-242.554 299.482 -191.524 188.145 -98.1949 144.626C-4.86611 101.106 113.224 133.58 228.75 221.427C344.264 309.264 457.138 452.413 539.976 630.059Z"
          stroke="#DDDDDD" stroke-width="0.618436"/>
    <path d="M573.551 755.127C590.634 950.393 564.457 1130.8 508.338 1264.63C452.213 1398.47 366.181 1485.64 263.596 1494.61C161.011 1503.59 61.1485 1432.68 -17.365 1310.62C-95.8698 1188.57 -152.977 1015.45 -170.061 820.185C-187.144 624.919 -160.967 444.512 -104.848 310.686C-48.7229 176.845 37.3095 89.6766 139.895 80.7015C242.48 71.7265 342.342 142.631 420.855 264.693C499.36 386.741 556.467 559.862 573.551 755.127Z"
          stroke="#DDDDDD" stroke-width="0.618436"/>
    <path d="M441.978 502.382C592.132 628.376 701.189 774.454 756.136 908.765C811.089 1043.09 811.893 1165.56 745.7 1244.45C679.508 1323.33 558.758 1343.81 416.93 1313.01C275.118 1282.23 112.322 1200.19 -37.8317 1074.2C-187.985 948.204 -297.042 802.126 -351.989 667.815C-406.943 533.489 -407.746 411.017 -341.554 332.132C-275.362 253.248 -154.611 232.772 -12.7833 263.565C129.029 294.354 291.825 376.388 441.978 502.382Z"
          stroke="#DDDDDD" stroke-width="0.618436"/>
    <path d="M488.05 1027.03C362.056 1177.19 215.978 1286.24 81.667 1341.19C-52.659 1396.14 -175.131 1396.95 -254.015 1330.76C-332.9 1264.56 -353.376 1143.81 -322.583 1001.99C-291.794 860.173 -209.759 697.377 -83.7657 547.224C42.2279 397.071 188.306 288.013 322.617 233.066C456.943 178.113 579.414 177.309 658.299 243.502C737.184 309.694 757.66 430.444 726.867 572.272C696.077 714.084 614.043 876.88 488.05 1027.03Z"
          stroke="#DDDDDD" stroke-width="0.618436"/>
    <path d="M558.015 899.76C499.073 1086.7 405.849 1243.36 302.789 1345.52C199.718 1447.69 86.8766 1495.3 -11.3342 1464.34C-109.545 1433.37 -174.671 1329.65 -200.498 1186.83C-226.321 1044.03 -212.83 862.237 -153.889 675.297C-94.947 488.358 -1.72311 331.701 101.337 229.538C204.408 127.363 317.25 79.7529 415.46 110.719C513.671 141.684 578.798 245.408 604.624 388.223C630.447 531.023 616.957 712.82 558.015 899.76Z"
          stroke="#DDDDDD" stroke-width="0.618436"/>
    <path d="M30.4339 457.279C204.298 366.771 380.991 321.917 526.105 322.551C671.236 323.185 784.693 369.311 832.242 460.653C879.791 551.994 852.499 671.389 769.775 790.637C687.06 909.871 548.971 1028.88 375.107 1119.39C201.243 1209.9 24.5502 1254.75 -120.564 1254.12C-265.695 1253.48 -379.152 1207.36 -426.701 1116.02C-474.251 1024.68 -446.959 905.281 -364.234 786.033C-281.519 666.798 -143.43 547.787 30.4339 457.279Z"
          stroke="#DDDDDD" stroke-width="0.618436"/>
    <path d="M532.782 615.489C623.29 789.353 668.144 966.045 667.51 1111.16C666.876 1256.29 620.751 1369.75 529.409 1417.3C438.067 1464.85 318.673 1437.55 199.425 1354.83C80.1902 1272.11 -38.8206 1134.03 -129.329 960.162C-219.837 786.297 -264.691 609.605 -264.057 464.49C-263.423 319.359 -217.297 205.903 -125.955 158.354C-34.6137 110.804 84.7809 138.096 204.029 220.82C323.263 303.535 442.274 441.624 532.782 615.489Z"
          stroke="#DDDDDD" stroke-width="0.618436"/>
    <path d="M571.778 738.974C597.362 933.308 579.079 1114.69 528.851 1250.83C478.618 1386.99 396.469 1477.83 294.373 1491.27C192.277 1504.71 89.4175 1438.23 5.65451 1319.71C-78.0992 1201.21 -142.704 1030.74 -168.288 836.406C-193.873 642.071 -175.589 460.693 -125.362 324.547C-75.1281 188.386 7.02026 97.5473 109.116 84.1061C211.212 70.6649 314.072 137.146 397.835 255.667C481.589 374.174 546.193 544.64 571.778 738.974Z"
          stroke="#DDDDDD" stroke-width="0.618436"/>
    <path d="M429.307 492.21C584.813 611.535 700.138 752.716 760.892 884.503C821.652 1016.3 827.797 1138.62 765.108 1220.32C702.42 1302.02 582.678 1327.74 439.642 1303.16C296.621 1278.59 130.402 1203.73 -25.1043 1084.41C-180.611 965.086 -295.936 823.905 -356.689 692.118C-417.449 560.317 -423.594 437.997 -360.906 356.3C-298.217 274.603 -178.475 248.879 -35.439 273.457C107.581 298.031 273.801 372.886 429.307 492.21Z"
          stroke="#DDDDDD" stroke-width="0.618436"/>
    <path d="M498.223 1014.35C378.899 1169.86 237.717 1285.18 105.931 1345.93C-25.8703 1406.69 -148.19 1412.84 -229.887 1350.15C-311.584 1287.46 -337.308 1167.72 -312.731 1024.68C-288.156 881.664 -213.301 715.445 -93.9768 559.939C25.3473 404.432 166.529 289.107 298.315 228.354C430.117 167.593 552.437 161.449 634.134 224.137C715.831 286.825 741.554 406.568 716.977 549.604C692.402 692.624 617.547 858.843 498.223 1014.35Z"
          stroke="#DDDDDD" stroke-width="0.618436"/>
    <path d="M562.565 884.148C511.834 1073.48 425.532 1234.05 327.027 1340.62C228.51 1447.19 117.853 1499.68 18.3847 1473.02C-81.0833 1446.37 -150.672 1345.59 -182.703 1204.03C-214.731 1062.5 -209.183 880.285 -158.452 690.952C-107.72 501.62 -21.4182 341.045 77.0872 234.484C175.604 127.911 286.261 75.4239 385.729 102.076C485.197 128.729 554.786 229.512 586.817 371.066C618.844 512.603 613.297 694.816 562.565 884.148Z"
          stroke="#DDDDDD" stroke-width="0.618436"/>
    <path d="M16.1911 465.103C185.942 367.097 360.51 314.578 505.514 308.882C650.534 303.185 765.895 344.318 817.383 433.498C868.872 522.679 846.814 643.151 769.37 765.893C691.934 888.622 559.168 1013.54 389.417 1111.55C219.666 1209.55 45.0982 1262.07 -99.906 1267.77C-244.926 1273.47 -360.287 1232.33 -411.775 1143.15C-463.264 1053.97 -441.206 933.501 -363.762 810.758C-286.326 688.029 -153.56 563.108 16.1911 465.103Z"
          stroke="#DDDDDD" stroke-width="0.618436"/>
    <path d="M524.96 601.247C622.965 770.997 675.484 945.565 681.18 1090.57C686.877 1235.59 645.745 1350.95 556.564 1402.44C467.383 1453.93 346.912 1431.87 224.169 1354.43C101.44 1276.99 -23.4809 1144.22 -121.487 974.473C-219.492 804.722 -272.011 630.154 -277.707 485.15C-283.404 340.129 -242.271 224.769 -153.091 173.281C-63.9103 121.792 56.5612 143.85 179.304 221.294C302.033 298.729 426.954 431.496 524.96 601.247Z"
          stroke="#DDDDDD" stroke-width="0.618436"/>
    <path d="M569.306 722.915C603.343 915.948 592.988 1097.95 548.747 1236.16C504.5 1374.38 426.392 1468.72 324.98 1486.6C223.568 1504.48 117.906 1442.55 29.0527 1327.79C-59.7905 1213.05 -131.769 1045.57 -165.806 852.535C-199.843 659.501 -189.489 477.499 -145.247 339.291C-101.001 201.068 -22.893 106.733 78.5195 88.851C179.932 70.9692 285.594 132.901 374.447 247.655C463.29 362.396 535.269 529.881 569.306 722.915Z"
          stroke="#DDDDDD" stroke-width="0.618436"/>
    <path d="M416.21 482.601C576.773 595.028 698.146 731.045 764.59 860.056C831.042 989.081 842.516 1111.02 783.451 1195.37C724.386 1279.72 605.88 1310.65 461.908 1292.33C317.952 1274.02 148.625 1206.49 -11.9377 1094.06C-172.501 981.631 -293.874 845.614 -360.319 716.603C-426.77 587.577 -438.244 465.642 -379.179 381.288C-320.114 296.934 -201.608 266.012 -57.6359 284.327C86.3201 302.64 255.646 370.173 416.21 482.601Z"
          stroke="#DDDDDD" stroke-width="0.618436"/>
    <path d="M507.826 1001.24C395.399 1161.8 259.382 1283.17 130.371 1349.62C1.34534 1416.07 -120.59 1427.54 -204.944 1368.48C-289.298 1309.41 -320.22 1190.91 -301.905 1046.93C-283.592 902.979 -216.059 733.653 -103.631 573.09C8.79611 412.527 144.813 291.153 273.824 224.709C402.849 158.257 524.785 146.783 609.139 205.848C693.492 264.913 724.414 383.419 706.1 527.391C687.787 671.347 620.254 840.674 507.826 1001.24Z"
          stroke="#DDDDDD" stroke-width="0.618436"/>
    <path d="M566.433 868.353C524.008 1059.72 444.792 1223.9 351.029 1334.66C257.255 1445.43 148.992 1502.69 48.4562 1480.4C-52.0798 1458.12 -125.998 1360.46 -164.173 1220.44C-202.344 1080.44 -204.75 898.156 -162.325 706.791C-119.901 515.426 -40.6851 351.24 53.0784 240.483C146.852 129.714 255.115 72.4503 355.651 94.7385C456.187 117.027 530.106 214.679 568.281 354.701C606.451 494.706 608.857 676.987 566.433 868.353Z"
          stroke="#DDDDDD" stroke-width="0.618436"/>
    <path d="M2.3011 473.538C167.615 368.221 339.726 308.138 484.344 296.122C628.978 284.105 746.023 320.167 801.352 407.016C856.682 493.866 839.899 615.185 767.883 741.189C695.875 867.179 568.684 997.772 403.369 1103.09C238.055 1208.41 65.9441 1268.49 -78.6736 1280.51C-223.307 1292.52 -340.352 1256.46 -395.682 1169.61C-451.011 1082.76 -434.229 961.442 -362.213 835.438C-290.204 709.448 -163.013 578.855 2.3011 473.538Z"
          stroke="#DDDDDD" stroke-width="0.618436"/>
    <path d="M516.521 587.363C621.838 752.677 681.921 924.788 693.937 1069.41C705.955 1214.04 669.893 1331.08 583.043 1386.41C496.193 1441.74 374.874 1424.96 248.87 1352.94C122.88 1280.94 -7.71297 1153.75 -113.03 988.431C-218.347 823.117 -278.43 651.006 -290.446 506.388C-302.463 361.754 -266.401 244.709 -179.551 189.38C-92.7016 134.05 28.6173 150.833 154.621 222.849C280.611 294.857 411.204 422.048 516.521 587.363Z"
          stroke="#DDDDDD" stroke-width="0.618436"/>
    <path d="M566.13 706.979C608.555 898.344 606.149 1080.63 567.979 1220.63C529.804 1360.65 455.885 1458.31 355.349 1480.59C254.813 1502.88 146.55 1445.62 52.7763 1334.85C-40.9873 1224.09 -120.203 1059.91 -162.627 868.541C-205.052 677.176 -202.646 494.895 -164.476 354.889C-126.301 214.867 -52.3819 117.215 48.1541 94.9267C148.69 72.6385 256.953 129.902 350.727 240.671C444.49 351.428 523.706 515.614 566.13 706.979Z"
          stroke="#DDDDDD" stroke-width="0.618436"/>
    <path d="M402.7 473.57C568.014 578.887 695.205 709.481 767.213 835.471C839.23 961.475 856.012 1082.79 800.682 1169.64C745.353 1256.49 628.308 1292.55 483.674 1280.54C339.057 1268.52 166.946 1208.44 1.63132 1103.12C-163.683 997.805 -290.874 867.212 -362.882 741.222C-434.899 615.218 -451.681 493.899 -396.351 407.049C-341.022 320.199 -223.977 284.137 -79.3434 296.154C65.2744 308.17 237.385 368.254 402.7 473.57Z"
          stroke="#DDDDDD" stroke-width="0.618436"/>
    <path d="M516.858 987.716C411.541 1153.03 280.948 1280.22 154.958 1352.23C28.9542 1424.25 -92.3648 1441.03 -179.215 1385.7C-266.064 1330.37 -302.126 1213.32 -290.109 1068.69C-278.093 924.073 -218.01 751.962 -112.693 586.648C-7.37604 421.334 123.217 294.143 249.207 222.134C375.211 150.118 496.53 133.336 583.38 188.665C670.23 243.995 706.292 361.039 694.274 505.673C682.258 650.291 622.175 822.402 516.858 987.716Z"
          stroke="#DDDDDD" stroke-width="0.618436"/>
    <path d="M569.609 852.405C535.572 1045.44 463.593 1212.92 374.75 1327.66C285.897 1442.42 180.235 1504.35 78.8226 1486.47C-22.5899 1468.59 -100.698 1374.25 -144.944 1236.03C-189.186 1097.82 -199.54 915.818 -165.503 722.785C-131.466 529.751 -59.4874 362.266 29.3558 247.525C118.209 132.771 223.871 70.8392 325.283 88.7209C426.696 106.603 504.803 200.938 549.05 339.161C593.291 477.368 603.646 659.371 569.609 852.405Z"
          stroke="#DDDDDD" stroke-width="0.618436"/>
    <path d="M-11.2091 482.57C149.354 370.143 318.68 302.609 462.636 284.296C606.608 265.982 725.115 296.904 784.18 381.257C843.245 465.611 831.77 587.547 765.319 716.572C698.875 845.583 577.501 981.6 416.938 1094.03C256.375 1206.46 87.0486 1273.99 -56.9073 1292.3C-200.879 1310.62 -319.386 1279.69 -378.451 1195.34C-437.516 1110.99 -426.042 989.051 -359.59 860.025C-293.146 731.014 -171.772 594.997 -11.2091 482.57Z"
          stroke="#DDDDDD" stroke-width="0.618436"/>
    <path d="M507.492 573.856C619.919 734.419 687.453 903.746 705.765 1047.7C724.08 1191.67 693.158 1310.18 608.804 1369.25C524.451 1428.31 402.515 1416.84 273.49 1350.38C144.479 1283.94 8.4619 1162.57 -103.966 1002C-216.393 841.44 -283.926 672.114 -302.239 528.158C-320.554 384.186 -289.632 265.68 -205.278 206.615C-120.924 147.55 1.01116 159.024 130.037 225.475C259.048 291.92 395.064 413.293 507.492 573.856Z"
          stroke="#DDDDDD" stroke-width="0.618436"/>
    <path d="M562.267 691.196C612.999 880.528 618.546 1062.74 586.519 1204.28C554.488 1345.83 484.899 1446.62 385.431 1473.27C285.963 1499.92 175.305 1447.43 76.789 1340.86C-21.7165 1234.3 -108.018 1073.72 -158.75 884.392C-209.481 695.059 -215.029 512.847 -183.001 371.309C-150.97 229.756 -81.3816 128.972 18.0865 102.32C117.555 75.6675 228.212 128.154 326.728 234.728C425.234 341.289 511.536 501.863 562.267 691.196Z"
          stroke="#DDDDDD" stroke-width="0.618436"/>
    <path d="M388.81 465.136C558.56 563.142 691.327 688.063 768.762 810.792C846.206 933.535 868.264 1054.01 816.776 1143.19C765.287 1232.37 649.927 1273.5 504.907 1267.8C359.902 1262.11 185.334 1209.59 15.5836 1111.58C-154.167 1013.58 -286.934 888.656 -364.369 765.927C-441.813 643.184 -463.871 522.712 -412.383 433.532C-360.894 344.351 -245.534 303.218 -100.513 308.915C44.4908 314.612 219.059 367.13 388.81 465.136Z"
          stroke="#DDDDDD" stroke-width="0.618436"/>
    <path d="M525.289 973.817C427.283 1143.57 302.362 1276.33 179.633 1353.77C56.8902 1431.21 -63.5813 1453.27 -152.762 1401.78C-241.943 1350.3 -283.075 1234.93 -277.378 1089.91C-271.682 944.91 -219.163 770.342 -121.158 600.591C-23.1519 430.841 101.769 298.074 224.498 220.639C347.241 143.195 467.712 121.137 556.893 172.625C646.074 224.114 687.206 339.474 681.509 484.494C675.813 629.499 623.294 804.066 525.289 973.817Z"
          stroke="#DDDDDD" stroke-width="0.618436"/>
    <path d="M572.08 836.329C546.496 1030.66 481.891 1201.13 398.138 1319.64C314.375 1438.16 211.515 1504.64 109.419 1491.2C7.32308 1477.76 -74.8252 1386.92 -125.059 1250.76C-175.287 1114.61 -193.57 933.232 -167.985 738.897C-142.401 544.563 -77.7964 374.098 5.9573 255.59C89.7203 137.07 192.58 70.5883 294.676 84.0295C396.772 97.4707 478.92 188.309 529.154 324.47C579.382 460.617 597.665 641.994 572.08 836.329Z"
          stroke="#DDDDDD" stroke-width="0.618436"/>
    <path d="M-24.3156 492.183C131.191 372.859 297.41 298.004 440.43 273.429C583.466 248.852 703.209 274.575 765.897 356.272C828.585 437.97 822.441 560.29 761.68 692.091C700.927 823.877 585.602 965.059 430.095 1084.38C274.589 1203.71 108.37 1278.56 -34.6504 1303.14C-177.686 1327.71 -297.429 1301.99 -360.117 1220.29C-422.806 1138.6 -416.661 1016.28 -355.901 884.475C-295.147 752.689 -179.822 611.507 -24.3156 492.183Z"
          stroke="#DDDDDD" stroke-width="0.618436"/>
    <path d="M497.876 560.757C617.201 716.263 692.056 882.482 716.63 1025.5C741.207 1168.54 715.484 1288.28 633.787 1350.97C552.09 1413.66 429.77 1407.51 297.969 1346.75C166.182 1286 25.0006 1170.67 -94.3235 1015.17C-213.648 859.661 -288.503 693.442 -313.077 550.422C-337.655 407.386 -311.931 287.643 -230.234 224.955C-148.537 162.267 -26.217 168.411 105.584 229.172C237.371 289.925 378.552 405.25 497.876 560.757Z"
          stroke="#DDDDDD" stroke-width="0.618436"/>
    <path d="M557.718 675.594C616.66 862.534 630.15 1044.33 604.327 1187.13C578.501 1329.95 513.375 1433.67 415.164 1464.64C316.953 1495.6 204.111 1447.99 101.04 1345.82C-2.01978 1243.65 -95.2437 1087 -154.185 900.057C-213.127 713.117 -226.618 531.32 -200.794 388.52C-174.968 245.705 -109.842 141.981 -11.6309 111.016C86.5799 80.0499 199.421 127.66 302.493 229.835C405.553 331.998 498.777 488.655 557.718 675.594Z"
          stroke="#DDDDDD" stroke-width="0.618436"/>
    <path d="M374.562 457.319C548.426 547.827 686.515 666.838 769.23 786.072C851.954 905.32 879.246 1024.71 831.697 1116.06C784.147 1207.4 670.691 1253.52 525.56 1254.16C380.445 1254.79 203.753 1209.94 29.8887 1119.43C-143.976 1028.92 -282.065 909.911 -364.78 790.676C-447.504 671.428 -474.796 552.034 -427.246 460.692C-379.697 369.35 -266.241 323.225 -121.11 322.591C24.005 321.957 200.698 366.811 374.562 457.319Z"
          stroke="#DDDDDD" stroke-width="0.618436"/>
    <path d="M533.101 959.562C442.593 1133.43 323.582 1271.51 204.348 1354.23C85.0999 1436.95 -34.2947 1464.25 -125.636 1416.7C-216.978 1369.15 -263.104 1255.69 -263.738 1110.56C-264.372 965.445 -219.518 788.753 -129.01 614.889C-38.5017 441.024 80.5092 302.935 199.744 220.22C318.992 137.496 438.386 110.204 529.728 157.754C621.07 205.303 667.195 318.759 667.829 463.89C668.463 609.005 623.609 785.698 533.101 959.562Z"
          stroke="#DDDDDD" stroke-width="0.618436"/>
    <path d="M573.85 820.163C556.767 1015.43 499.66 1188.55 421.155 1310.6C342.641 1432.66 242.779 1503.56 140.194 1494.59C37.6093 1485.61 -48.4231 1398.45 -104.548 1264.6C-160.667 1130.78 -186.844 950.371 -169.761 755.106C-152.677 559.84 -95.57 386.719 -17.0653 264.671C61.4482 142.61 161.31 71.7051 263.895 80.6802C366.48 89.6552 452.513 176.824 508.638 310.664C564.756 444.49 590.934 624.898 573.85 820.163Z"
          stroke="#DDDDDD" stroke-width="0.618436"/>
    <path d="M-36.9845 502.359C113.169 376.366 275.965 294.332 417.777 263.542C559.605 232.749 680.355 253.225 746.548 332.11C812.74 410.994 811.937 533.466 756.983 667.792C702.036 802.103 592.979 948.181 442.825 1074.17C292.672 1200.17 129.876 1282.2 -11.9361 1312.99C-153.764 1343.79 -274.514 1323.31 -340.707 1244.42C-406.899 1165.54 -406.096 1043.07 -351.142 908.742C-296.195 774.431 -187.138 628.353 -36.9845 502.359Z"
          stroke="#DDDDDD" stroke-width="0.618436"/>
    <path d="M487.697 548.092C613.691 698.245 695.725 861.041 726.515 1002.85C757.308 1144.68 736.832 1265.43 657.947 1331.62C579.062 1397.82 456.59 1397.01 322.264 1342.06C187.953 1287.11 41.8756 1178.05 -84.118 1027.9C-210.112 877.748 -292.146 714.952 -322.935 573.14C-353.728 431.312 -333.253 310.562 -254.368 244.369C-175.483 178.177 -53.0112 178.981 81.3148 233.934C215.626 288.881 361.704 397.938 487.697 548.092Z"
          stroke="#DDDDDD" stroke-width="0.618436"/>
    <path d="M552.493 660.209C619.533 844.4 640.94 1025.44 621.371 1169.23C601.799 1313.03 541.258 1419.5 444.492 1454.72C347.725 1489.94 232.914 1447.3 125.484 1349.71C18.0662 1252.14 -81.9023 1099.7 -148.942 915.511C-215.982 731.321 -237.389 550.285 -217.819 406.495C-198.247 262.688 -137.707 156.223 -40.9407 121.003C55.8259 85.7826 170.637 128.425 278.067 226.007C385.485 323.577 485.453 476.019 552.493 660.209Z"
          stroke="#DDDDDD" stroke-width="0.618436"/>
    <path d="M330.074 1137.6C145.883 1204.64 -35.1523 1226.05 -178.943 1206.48C-322.749 1186.91 -429.214 1126.37 -464.435 1029.6C-499.655 932.836 -457.012 818.026 -359.431 710.596C-261.86 603.178 -109.418 503.209 74.7722 436.169C258.963 369.129 439.998 347.722 583.789 367.292C727.595 386.864 834.06 447.404 869.28 544.171C904.501 640.937 861.858 755.748 764.276 863.178C666.706 970.596 514.264 1070.56 330.074 1137.6Z"
          stroke="#DDDDDD" stroke-width="0.618436"/>
    <path d="M359.99 450.129C537.637 532.967 680.786 645.842 768.623 761.355C856.47 876.881 888.944 994.971 845.424 1088.3C801.904 1181.63 690.567 1232.66 545.602 1239.62C400.654 1246.59 222.172 1209.48 44.5259 1126.64C-133.121 1043.81 -276.269 930.932 -364.107 815.419C-451.954 699.893 -484.428 581.803 -440.908 488.474C-397.388 395.145 -286.051 344.114 -141.086 337.15C3.86255 330.187 182.344 367.291 359.99 450.129Z"
          stroke="#DDDDDD" stroke-width="0.618436"/>
    <path d="M540.285 944.978C457.447 1122.62 344.573 1265.77 229.059 1353.61C113.533 1441.46 -4.55714 1473.93 -97.8859 1430.41C-191.215 1386.89 -242.245 1275.56 -249.209 1130.59C-256.172 985.642 -219.068 807.161 -136.23 629.514C-53.3924 451.868 59.4819 308.719 174.995 220.882C290.521 133.035 408.612 100.561 501.94 144.081C595.269 187.6 646.3 298.937 653.264 443.902C660.227 588.851 623.123 767.332 540.285 944.978Z"
          stroke="#DDDDDD" stroke-width="0.618436"/>
    <path d="M574.922 803.936C566.372 999.76 516.87 1175.21 443.764 1300.56C370.65 1425.93 273.975 1501.13 171.096 1496.64C68.2176 1492.14 -21.5352 1408.81 -83.4447 1277.55C-145.347 1146.29 -179.369 967.201 -170.819 771.376C-162.27 575.551 -112.768 400.104 -39.6617 274.748C33.4528 149.378 130.127 74.1847 233.006 78.6765C335.885 83.1683 425.638 166.501 487.547 297.766C549.45 429.017 583.472 608.111 574.922 803.936Z"
          stroke="#DDDDDD" stroke-width="0.618436"/>
    <path d="M-49.2066 513.08C95.3081 380.657 254.371 291.6 394.705 254.654C535.055 217.703 656.584 232.893 726.154 308.815C795.724 384.738 800.263 507.128 751.222 643.723C702.185 780.303 599.604 930.999 455.089 1063.42C310.574 1195.85 151.511 1284.9 11.1773 1321.85C-129.172 1358.8 -250.701 1343.61 -320.271 1267.69C-389.841 1191.76 -394.381 1069.37 -345.339 932.779C-296.303 796.199 -193.721 645.503 -49.2066 513.08Z"
          stroke="#DDDDDD" stroke-width="0.618436"/>
    <path d="M476.974 535.879C609.398 680.394 698.455 839.457 735.401 979.791C772.351 1120.14 757.162 1241.67 681.239 1311.24C605.317 1380.81 482.927 1385.35 346.332 1336.31C209.752 1287.27 59.0558 1184.69 -73.3675 1040.17C-205.791 895.66 -294.848 736.597 -331.794 596.263C-368.744 455.914 -353.555 334.385 -277.632 264.815C-201.71 195.245 -79.3198 190.705 57.2754 239.747C193.855 288.783 344.551 391.365 476.974 535.879Z"
          stroke="#DDDDDD" stroke-width="0.618436"/>
</svg>
