<?xml version="1.0" encoding="utf-8"?>
<!-- Generator: Adobe Illustrator 19.0.0, SVG Export Plug-In . SVG Version: 6.00 Build 0)  -->
<svg version="1.1" id="Layer_1" xmlns="http://www.w3.org/2000/svg" xmlns:xlink="http://www.w3.org/1999/xlink" x="0px" y="0px"
	 viewBox="0 0 2000 2000" enable-background="new 0 0 2000 2000" xml:space="preserve">
<g id="XMLID_2_">
	<path id="XMLID_12_" fill="#0072B2" d="M1818.863,489.537L1000,16.577L182.508,488.511l-34.248,19.864v39.726v943.523
		l817.492,471.934l34.248,19.864l34.247-19.864l817.492-471.934V549.471v-41.096L1818.863,489.537z M1000,73.772l769.546,444.191
		L1034.248,944.69V494.676h-68.495v447.617L231.825,516.937L1000,73.772z M197.577,1463.201V576.528l735.982,426.384
		l-189.389,109.934l34.248,59.591l187.334-108.564v842.494L197.577,1463.201z M1802.082,1463.201l-767.834,443.165v-882.22
		l767.834-445.905V1463.201z"/>
	<g id="XMLID_3_">
		<polygon id="XMLID_1010_" fill="#D36027" points="1633.649,634.079 1633.649,1365.99 999.886,1731.842 366.083,1365.99 
			366.083,634.079 999.886,268.227 1604.69,617.337 		"/>
		<polygon id="XMLID_1011_" fill="#C95828" points="415.619,1337.402 415.619,662.684 999.869,325.403 1584.127,662.684 
			1584.127,1337.402 999.869,1674.683 		"/>
		<polygon id="XMLID_1012_" fill="#0072B2" points="436.186,1325.526 436.186,674.559 999.867,349.153 1563.558,674.559 
			1563.558,1325.526 999.867,1650.933 		"/>
		<polygon id="XMLID_1013_" fill="#006C9C" points="527.552,1272.77 527.552,727.316 999.868,454.654 1472.192,727.316 
			1472.192,1272.77 999.868,1545.432 		"/>
		<polygon id="XMLID_1014_" fill="#036082" points="628.125,1214.697 628.125,785.389 999.869,570.786 1371.618,785.389 
			1371.618,1214.697 999.869,1429.3 		"/>
	</g>
	<g id="XMLID_6_">
		<path id="XMLID_1016_" fill-rule="evenodd" clip-rule="evenodd" fill="#F5AF9E" d="M907.444,1027.194
			c-25.149,18.512-48.211,35.482-78.229,22.974c-0.473-0.159-0.94-0.346-1.403-0.563l0.023-0.047
			c-58.8-27.576-19.022-112.038,2.117-149.036c-19.523,0.49-53.523-2.097-82.351-3.117l-5.647,8.784l-0.618,2.307l-53.359,204.78
			c33.062,27.768,183.961,154.357,209.397,173.01c7.354,5.393,18.935,6.17,32.047,4.609c8.312-0.99,17.129-2.936,25.95-5.33
			l-36.587-35.544c-5.201-5.115-5.271-13.482-0.155-18.682c5.116-5.202,13.481-5.272,18.682-0.155l51.399,49.924
			c0.883,0.663,1.687,1.442,2.388,2.32l12.875,12.505c6.514,3.311,33.938,15.128,39.935-17.163l-95.565-88.215
			c-5.373-4.944-5.72-13.309-0.775-18.684c4.944-5.373,13.309-5.719,18.682-0.775l97.254,89.772
			c4.421,4.081,12.53,6.741,20.724,6.725c4.223-0.009,8.293-0.8,11.584-2.577c2.635-1.422,4.782-3.616,5.991-6.736
			c2.022-5.216,1.995-12.936-1.247-23.841L998.25,1132.133c-5.173-5.173-5.173-13.563,0-18.736s13.56-5.173,18.733,0l102.912,102.91
			c12.788,5.649,23.17,7.372,31.288,6.435c6.011-0.692,10.611-2.913,13.848-6.002c3.142-2.999,5.137-6.936,5.973-11.144
			c0.923-4.638,0.469-9.506-1.366-13.792c-10.09-23.542-99.826-115.673-108.827-124.881c-0.586-0.515-1.136-1.089-1.637-1.722
			l0.02-0.017C984.171,970.717,943.088,1000.958,907.444,1027.194z"/>
		<path id="XMLID_1017_" fill="#D36027" d="M727.121,846.499l-9.173,19.539l-102.343,217.644l-11.271,24.023
			c0,0-105.141-37.679-238.252-93.006V656.868L727.121,846.499z"/>
		<polygon id="XMLID_1020_" fill-rule="evenodd" clip-rule="evenodd" fill="#E89B8B" points="755.178,897.405 709.776,1131.566 
			687.978,1113.276 		"/>
		<polygon id="XMLID_1021_" fill="#FFFFFF" points="687.575,1127.581 759.53,882.587 717.935,866.038 615.62,1083.701 		"/>
	</g>
	<g id="XMLID_7_">
		<path id="XMLID_1294_" fill-rule="evenodd" clip-rule="evenodd" fill="#F5AF9E" d="M1201.333,1139.537
			c-2.928,1.862-5.722,3.859-8.516,5.721c-4.923,3.327-10.113,7.052-15.701,11.043c-31.003-39.784-91.678-101.923-97.532-108.044
			c-90.746-113.765-142.639-75.577-187.746-42.446c-14.504,10.645-27.943,20.625-40.849,21.555
			c-0.533,0.133-1.065,0.133-1.597,0.133c-2.395,0.133-4.923-0.133-7.318-0.932c-0.931-0.132-1.73-0.399-2.661-0.798l-0.4-0.132
			l-0.266-0.133c-1.331-0.665-2.661-1.331-3.859-2.129c-1.33-0.798-2.528-1.597-3.593-2.395
			c-7.451-5.988-10.112-12.773-9.846-19.826l0.133-0.133c0.266-6.52,3.06-13.173,7.052-19.692c0.266-0.4,0.399-0.798,0.798-1.198
			c8.648-13.838,22.221-25.547,28.474-31.535c31.269-23.418,48.966-31.003,60.542-34.329c5.855-1.729,14.37-2.262,19.826-2.262
			c38.986,0,58.812,5.721,186.549,45.373L1201.333,1139.537z"/>
		<polygon id="XMLID_1018_" fill="#F5AF9E" points="1101.658,962.362 1193.799,1146.014 1258.001,1084.723 1499.205,990.802 
			1499.205,729.901 1220.916,934.279 		"/>
		<path id="XMLID_1019_" fill="#D36027" d="M1633.649,634.079v355.61l-146.44,88.563l-15.014-76.922l-42.904-219.783l-0.04-0.247
			h-0.041l-10.038-51.501c52.9-33.443,120.896-74.289,185.518-112.462L1633.649,634.079z"/>
		<polygon id="XMLID_1022_" fill-rule="evenodd" clip-rule="evenodd" fill="#E89B8B" points="1429.235,781.288 1452.039,1009.168 
			1472.192,1001.321 		"/>
		<g id="XMLID_1025_">
			<path id="XMLID_1026_" fill="#D36027" d="M1361.379,1072.37c-4.031,2.427-8.227,3.62-12.546,3.62
				c-2.714,0-5.471-0.452-8.268-1.398c-6.993-2.345-13.739-7.569-19.992-14.233l8.227-3.208c4.649,4.525,9.502,7.98,14.397,9.625
				c4.978,1.687,9.543,1.193,13.945-1.44c5.758-3.455,6.746-12.628,6.088-21.596c-0.124-2.427-0.412-4.854-0.74-7.116
				c-7.652-50.225-55.08-131.96-79.637-147.838c-1.933-1.275-3.703-2.098-5.307-2.509c-4.813-1.193-11.147-1.892-13.944,1.399
				c-2.715,3.167-2.427,9.749-1.028,16.002l-7.199,5.265c-2.18-7.898-3.991-19.621,1.933-26.573
				c4.442-5.224,11.929-6.581,22.212-4.072c3.167,0.782,6.623,2.633,10.284,5.389c30.234,22.624,73.919,106.457,80.789,151.705
				c0.287,1.81,0.493,3.538,0.617,5.224C1372.855,1056.821,1369.523,1067.475,1361.379,1072.37z"/>
		</g>
		<path id="XMLID_1293_" fill="#E89B8B" d="M882.791,997.031c-10.645,11.709-27.145,18.761-40.716,29.539
			c-0.931-0.132-1.73-0.399-2.661-0.798l-0.4-0.132l-0.266-0.133c-1.331-0.665-2.661-1.331-3.859-2.129
			c-1.33-0.798-2.528-1.597-3.593-2.395c-10.645-7.185-12.64-12.374-9.846-19.826l0.133-0.133c0.798-2.794,2.661-5.855,4.923-9.58
			c0,0,0.266-0.4,0.798-1.198c4.391-6.52,25.281-41.381,42.845-35.128C891.972,962.968,893.435,985.322,882.791,997.031z"/>
		<g id="XMLID_1015_">
			<path id="XMLID_1023_" fill="#D36027" d="M825.199,1030.241c-4.821,0-9.148-2.859-11.305-7.465
				c-2.326-4.977-1.637-10.636,1.806-14.755l35.734-42.75c3.236-3.866,7.991-6.088,13.046-6.088c3.067,0,6.094,0.832,8.745,2.404
				c1.962,1.156,3.976,2.443,5.899,3.827c3.859,2.781,6.328,7.114,6.796,11.883c0.468,4.866-1.182,9.7-4.522,13.26
				c-10.967,11.675-31.679,32.095-47.208,37.735c-2.728,0.994-5.288,1.624-7.614,1.878L825.199,1030.241z"/>
		</g>
	</g>
</g>
</svg>
