<svg width="25" height="24" viewBox="0 0 25 24" fill="none" xmlns="http://www.w3.org/2000/svg">
<path fill-rule="evenodd" clip-rule="evenodd" d="M20.5 4H4.5C3.71402 4 3.03015 4.45949 2.70375 5.12312C2.81275 5.14841 2.91883 5.19459 3.01612 5.26269L12.5 11.9014L21.9839 5.26269C22.0812 5.19459 22.1873 5.14841 22.2963 5.12312C21.9699 4.4595 21.286 4 20.5 4ZM22.5 7.09859L13.0161 13.7373C12.7062 13.9542 12.2938 13.9542 11.9839 13.7373L2.5 7.09859V18C2.5 19.1 3.4 20 4.5 20H20.5C21.6 20 22.5 19.1 22.5 18V7.09859Z" fill="#FE891D"/>
</svg>
