<svg width="80" height="80" viewBox="0 0 80 80" fill="none" xmlns="http://www.w3.org/2000/svg">
    <circle cx="40" cy="40" r="39.5" fill="white" stroke="#E4E5E6" />
    <path d="M45 31.5H35C32 31.5 30 33 30 36.5V43.5C30 47 32 48.5 35 48.5H45C48 48.5 50 47 50 43.5V36.5C50 33 48 31.5 45 31.5ZM45.47 37.59L42.34 40.09C41.68 40.62 40.84 40.88 40 40.88C39.16 40.88 38.31 40.62 37.66 40.09L34.53 37.59C34.21 37.33 34.16 36.85 34.41 36.53C34.67 36.21 35.14 36.15 35.46 36.41L38.59 38.91C39.35 39.52 40.64 39.52 41.4 38.91L44.53 36.41C44.85 36.15 45.33 36.2 45.58 36.53C45.84 36.85 45.79 37.33 45.47 37.59Z" fill="#40444E" />
</svg>