<svg width="71" height="70" viewBox="0 0 71 70" fill="none" xmlns="http://www.w3.org/2000/svg">
<g filter="url(#filter0_ii_2040_4205)">
<path fill-rule="evenodd" clip-rule="evenodd" d="M44.5417 5.83325L17.875 5.83326C14.5613 5.83326 11.875 8.51954 11.875 11.8333V58.1666C11.875 61.4803 14.5613 64.1666 17.875 64.1666H53.125C56.4387 64.1666 59.125 61.4803 59.125 58.1666V20.4166L44.5417 5.83325Z" fill="#FA4E4E"/>
</g>
<path d="M44.9737 45.1188C43.0053 44.9726 41.1102 44.2416 39.5793 42.9259C36.5905 43.5836 33.7471 44.5337 30.9041 45.7036C28.6444 49.7239 26.5302 51.7707 24.7076 51.7707C24.343 51.7707 23.9059 51.6977 23.6142 51.4783C22.8121 51.1129 22.375 50.3087 22.375 49.5048C22.375 48.8467 22.5208 47.0194 29.4461 44.0222C31.0503 41.0982 32.2891 38.1013 33.3099 34.9583C32.4349 33.2039 30.5398 28.8909 31.8516 26.6983C32.2891 25.894 33.1641 25.4554 34.112 25.5287C34.8408 25.5287 35.5696 25.894 36.0071 26.4788C36.9551 27.7946 36.8821 30.5723 35.6425 34.6659C36.8092 36.8557 38.3373 38.8328 40.1623 40.5138C41.6935 40.221 43.2241 40.0019 44.7549 40.0019C48.1813 40.0748 48.6917 41.683 48.6188 42.6335C48.6188 45.1188 46.2129 45.1188 44.9737 45.1188ZM24.5621 49.6506L24.7809 49.5777C25.8014 49.2124 26.6031 48.4814 27.1864 47.5309C26.0927 47.9695 25.218 48.7005 24.5621 49.651V49.6506ZM34.2575 27.7216H34.0387C33.9658 27.7216 33.82 27.7216 33.7471 27.7946C33.4554 29.0371 33.6742 30.3528 34.1846 31.5224C34.6221 30.2799 34.6221 28.9641 34.2575 27.7216ZM34.7679 38.3208L34.695 38.4666L34.6221 38.3937C33.9658 40.0752 33.2367 41.7563 32.4349 43.3645L32.5808 43.2915V43.4374C34.2019 42.8496 35.8574 42.3614 37.538 41.9754L37.4651 41.9025H37.6839C36.5901 40.8058 35.5696 39.5633 34.7679 38.3208ZM44.682 42.1949C44.0258 42.1949 43.4428 42.1949 42.7866 42.3407C43.5157 42.7064 44.2449 42.8526 44.9737 42.9259C45.4841 42.9988 45.9945 42.9259 46.4317 42.7797C46.4317 42.5602 46.14 42.1949 44.682 42.1949Z" fill="white"/>
<path d="M57.7569 19.0496H45.9089L59.1251 32.2657L59.1251 20.4167L57.7569 19.0496Z" fill="url(#paint0_linear_2040_4205)"/>
<path d="M48.5417 20.4167L59.125 20.4167L44.5417 5.83341L44.5417 16.4167C44.5417 18.6259 46.3325 20.4167 48.5417 20.4167Z" fill="#FDB8B8"/>
<defs>
<filter id="filter0_ii_2040_4205" x="11.875" y="4.83325" width="47.25" height="60.3333" filterUnits="userSpaceOnUse" color-interpolation-filters="sRGB">
<feFlood flood-opacity="0" result="BackgroundImageFix"/>
<feBlend mode="normal" in="SourceGraphic" in2="BackgroundImageFix" result="shape"/>
<feColorMatrix in="SourceAlpha" type="matrix" values="0 0 0 0 0 0 0 0 0 0 0 0 0 0 0 0 0 0 127 0" result="hardAlpha"/>
<feOffset dy="-1"/>
<feGaussianBlur stdDeviation="0.5"/>
<feComposite in2="hardAlpha" operator="arithmetic" k2="-1" k3="1"/>
<feColorMatrix type="matrix" values="0 0 0 0 0 0 0 0 0 0 0 0 0 0 0 0 0 0 0.3 0"/>
<feBlend mode="normal" in2="shape" result="effect1_innerShadow_2040_4205"/>
<feColorMatrix in="SourceAlpha" type="matrix" values="0 0 0 0 0 0 0 0 0 0 0 0 0 0 0 0 0 0 127 0" result="hardAlpha"/>
<feOffset dy="1"/>
<feGaussianBlur stdDeviation="0.5"/>
<feComposite in2="hardAlpha" operator="arithmetic" k2="-1" k3="1"/>
<feColorMatrix type="matrix" values="0 0 0 0 1 0 0 0 0 1 0 0 0 0 1 0 0 0 0.3 0"/>
<feBlend mode="normal" in2="effect1_innerShadow_2040_4205" result="effect2_innerShadow_2040_4205"/>
</filter>
<linearGradient id="paint0_linear_2040_4205" x1="48.8712" y1="16.0873" x2="62.0873" y2="29.3035" gradientUnits="userSpaceOnUse">
<stop stop-opacity="0.2"/>
<stop offset="1" stop-opacity="0"/>
</linearGradient>
</defs>
</svg>
