<svg width="70" height="70" viewBox="0 0 70 70" fill="none" xmlns="http://www.w3.org/2000/svg">
<g filter="url(#filter0_ii_5697_31197)">
<path fill-rule="evenodd" clip-rule="evenodd" d="M44.0417 5.83301L17.375 5.83301C14.0613 5.83301 11.375 8.5193 11.375 11.833V58.1663C11.375 61.4801 14.0613 64.1663 17.375 64.1663H52.625C55.9387 64.1663 58.625 61.4801 58.625 58.1663V20.4163L44.0417 5.83301Z" fill="#FA4E4E"/>
</g>
<path d="M44.4737 45.1186C42.5053 44.9724 40.6102 44.2414 39.0793 42.9256C36.0905 43.5833 33.2471 44.5334 30.4041 45.7034C28.1444 49.7236 26.0302 51.7704 24.2076 51.7704C23.843 51.7704 23.4059 51.6975 23.1142 51.478C22.3121 51.1127 21.875 50.3084 21.875 49.5045C21.875 48.8465 22.0208 47.0192 28.9461 44.0219C30.5503 41.098 31.7891 38.1011 32.8099 34.958C31.9349 33.2036 30.0398 28.8906 31.3516 26.698C31.7891 25.8937 32.6641 25.4551 33.612 25.5284C34.3408 25.5284 35.0696 25.8937 35.5071 26.4785C36.4551 27.7943 36.3821 30.5721 35.1425 34.6656C36.3092 36.8554 37.8373 38.8325 39.6623 40.5135C41.1935 40.2208 42.7241 40.0017 44.2549 40.0017C47.6813 40.0746 48.1917 41.6828 48.1188 42.6332C48.1188 45.1186 45.7129 45.1186 44.4737 45.1186V45.1186ZM24.0621 49.6504L24.2809 49.5774C25.3014 49.2121 26.1031 48.4811 26.6864 47.5307C25.5927 47.9693 24.718 48.7003 24.0621 49.6507V49.6504ZM33.7575 27.7214H33.5387C33.4658 27.7214 33.32 27.7214 33.2471 27.7943C32.9554 29.0368 33.1742 30.3526 33.6846 31.5222C34.1221 30.2797 34.1221 28.9639 33.7575 27.7214V27.7214ZM34.2679 38.3206L34.195 38.4664L34.1221 38.3935C33.4658 40.0749 32.7367 41.756 31.9349 43.3642L32.0808 43.2913V43.4371C33.7019 42.8494 35.3574 42.3611 37.038 41.9751L36.9651 41.9022H37.1839C36.0901 40.8056 35.0696 39.5631 34.2679 38.3206V38.3206ZM44.182 42.1946C43.5258 42.1946 42.9428 42.1946 42.2866 42.3405C43.0157 42.7061 43.7449 42.8523 44.4737 42.9256C44.9841 42.9985 45.4945 42.9256 45.9317 42.7794C45.9317 42.5599 45.64 42.1946 44.182 42.1946Z" fill="white"/>
<path d="M57.2561 19.0498H45.4082L58.6243 32.2659L58.6243 20.417L57.2561 19.0498Z" fill="url(#paint0_linear_5697_31197)"/>
<path d="M48.0417 20.417L58.625 20.417L44.0417 5.83366L44.0417 16.417C44.0417 18.6261 45.8325 20.417 48.0417 20.417Z" fill="#FDB8B8"/>
<defs>
<filter id="filter0_ii_5697_31197" x="11.375" y="4.83301" width="47.25" height="60.333" filterUnits="userSpaceOnUse" color-interpolation-filters="sRGB">
<feFlood flood-opacity="0" result="BackgroundImageFix"/>
<feBlend mode="normal" in="SourceGraphic" in2="BackgroundImageFix" result="shape"/>
<feColorMatrix in="SourceAlpha" type="matrix" values="0 0 0 0 0 0 0 0 0 0 0 0 0 0 0 0 0 0 127 0" result="hardAlpha"/>
<feOffset dy="-1"/>
<feGaussianBlur stdDeviation="0.5"/>
<feComposite in2="hardAlpha" operator="arithmetic" k2="-1" k3="1"/>
<feColorMatrix type="matrix" values="0 0 0 0 0 0 0 0 0 0 0 0 0 0 0 0 0 0 0.3 0"/>
<feBlend mode="normal" in2="shape" result="effect1_innerShadow_5697_31197"/>
<feColorMatrix in="SourceAlpha" type="matrix" values="0 0 0 0 0 0 0 0 0 0 0 0 0 0 0 0 0 0 127 0" result="hardAlpha"/>
<feOffset dy="1"/>
<feGaussianBlur stdDeviation="0.5"/>
<feComposite in2="hardAlpha" operator="arithmetic" k2="-1" k3="1"/>
<feColorMatrix type="matrix" values="0 0 0 0 1 0 0 0 0 1 0 0 0 0 1 0 0 0 0.3 0"/>
<feBlend mode="normal" in2="effect1_innerShadow_5697_31197" result="effect2_innerShadow_5697_31197"/>
</filter>
<linearGradient id="paint0_linear_5697_31197" x1="48.3704" y1="16.0876" x2="61.5866" y2="29.3037" gradientUnits="userSpaceOnUse">
<stop stop-opacity="0.2"/>
<stop offset="1" stop-opacity="0"/>
</linearGradient>
</defs>
</svg>
