<svg width="25" height="24" viewBox="0 0 25 24" fill="none" xmlns="http://www.w3.org/2000/svg">
<path fill-rule="evenodd" clip-rule="evenodd" d="M9.2011 4.11843C6.01544 5.56459 3.79993 8.77356 3.79993 12.5C3.79993 12.804 3.81467 13.1046 3.84349 13.401L11.1629 11.4398L9.2011 4.11843ZM12.0993 3.34351L14.19 11.1463L14.2017 11.1897C14.2517 11.3754 14.3222 11.6374 14.3532 11.8775C14.3922 12.1802 14.4014 12.659 14.1197 13.1469C13.838 13.6348 13.4187 13.8663 13.1371 13.9839C12.9136 14.0771 12.6515 14.147 12.4657 14.1966L12.4223 14.2082L4.61855 16.2992C6.06479 19.4847 9.27365 21.7 12.9999 21.7C18.0809 21.7 22.1999 17.581 22.1999 12.5C22.1999 7.41897 18.0809 3.29999 12.9999 3.29999C12.696 3.29999 12.3956 3.31472 12.0993 3.34351Z" fill="#FE891D"/>
<path d="M10.5412 3.3237C10.2908 2.38917 10.1656 1.92191 9.74322 1.72478C9.32084 1.52766 8.92934 1.70993 8.14634 2.07445C7.38707 2.42794 6.66686 2.86415 5.99924 3.37644C4.80112 4.29579 3.79581 5.44213 3.04071 6.75C2.28561 8.05787 1.7955 9.50167 1.59838 10.9989C1.48854 11.8333 1.47087 12.6751 1.54438 13.5094C1.62019 14.3697 1.65809 14.7999 2.04 15.0672C2.42191 15.3344 2.88917 15.2092 3.8237 14.9588L11.0681 13.0176C11.9788 12.7736 12.4342 12.6516 12.6413 12.2929C12.8484 11.9342 12.7264 11.4788 12.4824 10.5681L10.5412 3.3237Z" fill="#FE891D"/>
</svg>
