<svg width="25" height="24" viewBox="0 0 25 24" fill="none" xmlns="http://www.w3.org/2000/svg">
<path fill-rule="evenodd" clip-rule="evenodd" d="M5.64838 17.0586C6.0377 17.6865 6.50783 18.2652 7.04959 18.7787C8.26297 19.9287 9.78362 20.7025 11.4276 21.0065C13.0715 21.3104 14.7683 21.1314 16.3127 20.4912C17.857 19.851 19.1828 18.7769 20.1295 17.399C21.0763 16.0211 21.6034 14.3984 21.6472 12.7272C21.691 11.0559 21.2496 9.40782 20.3764 7.98221C19.5031 6.5566 18.2355 5.41459 16.7268 4.69434C15.6411 4.17604 14.4641 3.89213 13.2717 3.85468L13.5985 5.07448C14.5002 5.14715 15.3855 5.38378 16.2098 5.77727C17.5092 6.3976 18.601 7.38118 19.3531 8.60902C20.1052 9.83686 20.4854 11.2563 20.4476 12.6957C20.4099 14.1351 19.9559 15.5327 19.1405 16.7195C18.3251 17.9062 17.1833 18.8313 15.8531 19.3827C14.523 19.9341 13.0616 20.0882 11.6457 19.8265C10.2298 19.5647 8.92014 18.8982 7.87509 17.9077C7.49771 17.55 7.16067 17.1556 6.86818 16.7317L5.64838 17.0586Z" fill="#0D1C2C"/>
<path d="M5.99949 3.37644C6.93267 2.66038 7.96859 2.09294 9.07036 1.69232C9.49452 1.53808 9.70661 1.46096 9.9017 1.56256C10.0968 1.66416 10.1587 1.89536 10.2826 2.35778L12.7414 11.5341C12.8634 11.9894 12.9244 12.2171 12.8209 12.3964C12.7173 12.5758 12.4897 12.6368 12.0343 12.7588L2.85802 15.2176C2.39561 15.3415 2.1644 15.4035 1.97887 15.2853C1.79334 15.1671 1.75408 14.9449 1.67557 14.5005C1.47164 13.346 1.4451 12.1651 1.59863 10.9989C1.79575 9.50167 2.28585 8.05787 3.04095 6.75C3.79605 5.44213 4.80136 4.29579 5.99949 3.37644Z" stroke="#0D1C2C" stroke-width="1.2"/>
</svg>
