<svg xmlns="http://www.w3.org/2000/svg" width="21" height="20" viewBox="0 0 21 20" fill="none">
    <path d="M10.4998 1.66675C5.90817 1.66675 2.1665 5.40841 2.1665 10.0001C2.1665 14.5917 5.90817 18.3334 10.4998 18.3334C15.0915 18.3334 18.8332 14.5917 18.8332 10.0001C18.8332 5.40841 15.0915 1.66675 10.4998 1.66675ZM14.4832 8.08342L9.75817 12.8084C9.6415 12.9251 9.48317 12.9917 9.3165 12.9917C9.14984 12.9917 8.9915 12.9251 8.87484 12.8084L6.5165 10.4501C6.27484 10.2084 6.27484 9.80841 6.5165 9.56675C6.75817 9.32508 7.15817 9.32508 7.39984 9.56675L9.3165 11.4834L13.5998 7.20008C13.8415 6.95842 14.2415 6.95842 14.4832 7.20008C14.7248 7.44175 14.7248 7.83342 14.4832 8.08342Z" fill="#28D02F"/>
</svg>
