<svg width="40" height="40" viewBox="0 0 40 40" fill="none" xmlns="http://www.w3.org/2000/svg">
    <circle cx="20" cy="20" r="20" fill="#F9F9F9" />
    <path d="M20.0002 13.3333C18.2535 13.3333 16.8335 14.7533 16.8335 16.5C16.8335 18.2133 18.1735 19.6 19.9202 19.66C19.9735 19.6533 20.0268 19.6533 20.0668 19.66C20.0802 19.66 20.0868 19.66 20.1002 19.66C20.1068 19.66 20.1068 19.66 20.1135 19.66C21.8202 19.6 23.1602 18.2133 23.1668 16.5C23.1668 14.7533 21.7468 13.3333 20.0002 13.3333Z" fill="#40444E" />
    <path d="M23.3866 21.4334C21.5266 20.1934 18.4933 20.1934 16.62 21.4334C15.7733 22 15.3066 22.7667 15.3066 23.5867C15.3066 24.4067 15.7733 25.1667 16.6133 25.7267C17.5466 26.3534 18.7733 26.6667 20 26.6667C21.2266 26.6667 22.4533 26.3534 23.3866 25.7267C24.2266 25.16 24.6933 24.4 24.6933 23.5734C24.6866 22.7534 24.2266 21.9934 23.3866 21.4334Z" fill="#40444E" />
  </svg>