<svg width="40" height="40" viewBox="0 0 40 40" fill="none" xmlns="http://www.w3.org/2000/svg">
    <circle cx="20" cy="20" r="20" fill="#F9F9F9" />
    <path d="M11.1472 22.004V21.36L12.7852 21.024V21.948C12.7852 23.11 13.4432 23.628 14.3112 23.628C15.2072 23.628 15.7672 23.026 15.7672 22.018V15.074H17.4472V21.976C17.4472 23.74 16.2152 25.21 14.3252 25.21C12.3792 25.21 11.1472 23.936 11.1472 22.004ZM24.1234 25.21C21.4494 25.21 19.1114 23.278 19.1114 20.044C19.1114 16.81 21.5334 14.864 24.1094 14.864C26.6294 14.864 28.1274 16.348 28.5754 18.084L26.9934 18.616C26.6994 17.412 25.7754 16.446 24.1094 16.446C22.4714 16.446 20.8334 17.636 20.8334 20.044C20.8334 22.368 22.4294 23.6 24.1234 23.6C25.7894 23.6 26.7414 22.536 27.0774 21.416L28.6174 21.92C28.1694 23.6 26.6574 25.21 24.1234 25.21Z" fill="#40444E" />
  </svg>