<svg width="25" height="24" viewBox="0 0 25 24" fill="none" xmlns="http://www.w3.org/2000/svg">
<path d="M14.8647 4H10.3647C7.18277 4 5.59178 4 4.60326 5.00421C3.61475 6.00841 3.61475 7.62465 3.61475 10.8571V13.1429C3.61475 16.3753 3.61475 17.9916 4.60326 18.9958C5.59178 20 7.18277 20 10.3647 20H14.8647C18.0467 20 19.6377 20 20.6262 18.9958C21.6147 17.9916 21.6147 16.3753 21.6147 13.1429V10.8571C21.6147 7.62465 21.6147 6.00841 20.6262 5.00421C19.6377 4 18.0467 4 14.8647 4Z" stroke="#0D1C2C"/>
<path d="M7.61475 8H10.6147" stroke="#0D1C2C" stroke-linecap="round"/>
<path d="M19.6147 16H17.6147C16.6719 16 16.2005 16 15.9076 15.7071C15.6147 15.4142 15.6147 14.9428 15.6147 14C15.6147 13.0572 15.6147 12.5858 15.9076 12.2929C16.2005 12 16.6719 12 17.6147 12H19.6147C20.5576 12 21.029 12 21.3219 12.2929C21.6147 12.5858 21.6147 13.0572 21.6147 14C21.6147 14.9428 21.6147 15.4142 21.3219 15.7071C21.029 16 20.5576 16 19.6147 16Z" stroke="#0D1C2C"/>
</svg>
