<svg width="20" height="20" viewBox="0 0 20 20" fill="none" xmlns="http://www.w3.org/2000/svg">
<path d="M16.4912 3.5166C14.0246 1.05827 10.0246 1.05827 7.57455 3.5166C5.84955 5.22493 5.33289 7.68327 5.99955 9.84993L2.08289 13.7666C1.80789 14.0499 1.61622 14.6083 1.67455 15.0083L1.92455 16.8249C2.01622 17.4249 2.57455 17.9916 3.17455 18.0749L4.99122 18.3249C5.39122 18.3833 5.94955 18.1999 6.23289 17.9083L6.91622 17.2249C7.08289 17.0666 7.08289 16.7999 6.91622 16.6333L5.29955 15.0166C5.05789 14.7749 5.05789 14.3749 5.29955 14.1333C5.54122 13.8916 5.94122 13.8916 6.18289 14.1333L7.80789 15.7583C7.96622 15.9166 8.23289 15.9166 8.39122 15.7583L10.1579 13.9999C12.3162 14.6749 14.7746 14.1499 16.4912 12.4416C18.9496 9.98327 18.9496 5.97494 16.4912 3.5166ZM12.0829 9.99994C10.9329 9.99994 9.99955 9.0666 9.99955 7.9166C9.99955 6.7666 10.9329 5.83327 12.0829 5.83327C13.2329 5.83327 14.1662 6.7666 14.1662 7.9166C14.1662 9.0666 13.2329 9.99994 12.0829 9.99994Z" fill="white"/>
</svg>
