<svg width="71" height="70" viewBox="0 0 71 70" fill="none" xmlns="http://www.w3.org/2000/svg">
<g filter="url(#filter0_ii_2040_1651)">
<path fill-rule="evenodd" clip-rule="evenodd" d="M44.5417 5.83325L17.875 5.83326C14.5613 5.83326 11.875 8.51954 11.875 11.8333V58.1666C11.875 61.4803 14.5613 64.1666 17.875 64.1666H53.125C56.4387 64.1666 59.125 61.4803 59.125 58.1666V20.4166L44.5417 5.83325Z" fill="#32BD7A"/>
</g>
<path d="M30.0049 45L35.2595 37.2858L40.5415 45H43.0455L36.4744 35.6472L42.5723 27H40.0684L35.2595 34.0083L30.4742 27H27.9711L34.02 35.6472L27.5 45H30.0049Z" fill="white"/>
<path d="M57.7569 19.0496H45.9089L59.1251 32.2657L59.1251 20.4167L57.7569 19.0496Z" fill="url(#paint0_linear_2040_1651)"/>
<path d="M48.5417 20.4167L59.125 20.4167L44.5417 5.83341L44.5417 16.4167C44.5417 18.6259 46.3325 20.4167 48.5417 20.4167Z" fill="#EBFFEC"/>
<defs>
<filter id="filter0_ii_2040_1651" x="11.875" y="4.83325" width="47.25" height="60.3333" filterUnits="userSpaceOnUse" color-interpolation-filters="sRGB">
<feFlood flood-opacity="0" result="BackgroundImageFix"/>
<feBlend mode="normal" in="SourceGraphic" in2="BackgroundImageFix" result="shape"/>
<feColorMatrix in="SourceAlpha" type="matrix" values="0 0 0 0 0 0 0 0 0 0 0 0 0 0 0 0 0 0 127 0" result="hardAlpha"/>
<feOffset dy="-1"/>
<feGaussianBlur stdDeviation="0.5"/>
<feComposite in2="hardAlpha" operator="arithmetic" k2="-1" k3="1"/>
<feColorMatrix type="matrix" values="0 0 0 0 0 0 0 0 0 0 0 0 0 0 0 0 0 0 0.3 0"/>
<feBlend mode="normal" in2="shape" result="effect1_innerShadow_2040_1651"/>
<feColorMatrix in="SourceAlpha" type="matrix" values="0 0 0 0 0 0 0 0 0 0 0 0 0 0 0 0 0 0 127 0" result="hardAlpha"/>
<feOffset dy="1"/>
<feGaussianBlur stdDeviation="0.5"/>
<feComposite in2="hardAlpha" operator="arithmetic" k2="-1" k3="1"/>
<feColorMatrix type="matrix" values="0 0 0 0 1 0 0 0 0 1 0 0 0 0 1 0 0 0 0.3 0"/>
<feBlend mode="normal" in2="effect1_innerShadow_2040_1651" result="effect2_innerShadow_2040_1651"/>
</filter>
<linearGradient id="paint0_linear_2040_1651" x1="48.8712" y1="16.0873" x2="62.0873" y2="29.3035" gradientUnits="userSpaceOnUse">
<stop stop-opacity="0.2"/>
<stop offset="1" stop-opacity="0"/>
</linearGradient>
</defs>
</svg>
